<?xml version="1.0" standalone="no"?>
<!DOCTYPE svg PUBLIC "-//W3C//DTD SVG 1.1//EN" "http://www.w3.org/Graphics/SVG/1.1/DTD/svg11.dtd" >
<svg xmlns="http://www.w3.org/2000/svg">
<metadata>Generated by IcoMoon</metadata>
<defs>
<font id="icomoon" horiz-adv-x="1024">
<font-face units-per-em="1024" ascent="960" descent="-64" />
<missing-glyph horiz-adv-x="1024" />
<glyph unicode="&#x20;" horiz-adv-x="512" d="" />
<glyph unicode="&#xe900;" glyph-name="archive" d="M128 0h768c70.6 0 128 57.4 128 128v512c0 70.6-57.4 128-128 128h-320c-20.2 0-39.2 9.4-51.2 25.6l-38.4 51.2c-24.2 32.2-62.2 51.2-102.4 51.2h-256c-70.6 0-128-57.4-128-128v-640c0-70.6 57.4-128 128-128z" />
<glyph unicode="&#xe901;" glyph-name="calendar" horiz-adv-x="896" d="M256 960c35.4 0 64-28.6 64-64v-64h256v64c0 35.4 28.6 64 64 64s64-28.6 64-64v-64h96c53 0 96-43 96-96v-96h-896v96c0 53 43 96 96 96h96v64c0 35.4 28.6 64 64 64zM0 576h896v-544c0-53-43-96-96-96h-704c-53 0-96 43-96 96v544zM128 416v-64c0-17.6 14.4-32 32-32h64c17.6 0 32 14.4 32 32v64c0 17.6-14.4 32-32 32h-64c-17.6 0-32-14.4-32-32zM384 416v-64c0-17.6 14.4-32 32-32h64c17.6 0 32 14.4 32 32v64c0 17.6-14.4 32-32 32h-64c-17.6 0-32-14.4-32-32zM672 448c-17.6 0-32-14.4-32-32v-64c0-17.6 14.4-32 32-32h64c17.6 0 32 14.4 32 32v64c0 17.6-14.4 32-32 32h-64zM128 160v-64c0-17.6 14.4-32 32-32h64c17.6 0 32 14.4 32 32v64c0 17.6-14.4 32-32 32h-64c-17.6 0-32-14.4-32-32zM416 192c-17.6 0-32-14.4-32-32v-64c0-17.6 14.4-32 32-32h64c17.6 0 32 14.4 32 32v64c0 17.6-14.4 32-32 32h-64zM640 160v-64c0-17.6 14.4-32 32-32h64c17.6 0 32 14.4 32 32v64c0 17.6-14.4 32-32 32h-64c-17.6 0-32-14.4-32-32z" />
<glyph unicode="&#xe902;" glyph-name="career-flag" horiz-adv-x="896" d="M64 960c35.4 0 64-28.6 64-64v-32l138 34.4c76.2 19 156.6 10.2 227-25 92.6-46.4 201.6-46.4 294.2 0l19.2 9.6c41.2 20.8 89.6-9.2 89.6-55.2v-559.4c0-26.6-16.6-50.6-41.6-60l-69.4-26c-92.4-34.6-195.2-29.2-283.4 14.8-75.8 38-162.6 47.4-245 26.8l-128.6-32v-192c0-35.4-28.6-64-64-64s-64 28.6-64 64v896c0 35.4 28.6 64 64 64zM128 585.8l128 27.8v-131l-128-27.8v-130.8l97.6 24.4c10.2 2.6 20.2 4.8 30.4 6.6v127.6l77.8 16.8c16.6 3.6 33.4 5 50.2 4.2v128c27.2-0.8 54.4-5.2 80.8-12.8l47.2-13.8v-133.4l-83.4 24.6c-14.6 4.2-29.6 6.8-44.6 7.6v-142.8c43.6-3.8 86.6-13.4 128-28.8v139.4l45.4-13.4c27-8 54.6-12.8 82.6-14.8v128.6c-15.6 1.6-31.2 4.6-46.4 9l-81.6 24v124c-26 7.6-51.6 17.6-76.4 30-16.4 8.2-33.8 14-51.6 17.6v-144.8c-26 0.8-52-1.6-77.4-7.2l-50.6-11v150.4l-128-32v-146.2zM640 288.6c33.6-3 67.8 1.4 100 13.6l28 10.4v143.6l-15.8-3.6c-36.8-8.6-74.6-11.4-112.2-9v-154.8zM768 587.4v141.8c-41.8-12.2-84.8-18.2-128-18.2v-139c27.8-2.8 56-1 83.4 5.2l44.6 10.4z" />
<glyph unicode="&#xe903;" glyph-name="circle" d="M512-64c282.77 0 512 229.23 512 512s-229.23 512-512 512v0c-282.77 0-512-229.23-512-512s229.23-512 512-512v0z" />
<glyph unicode="&#xe904;" glyph-name="directory" horiz-adv-x="1152" d="M0 768c0 70.6 57.4 128 128 128h896c70.6 0 128-57.4 128-128v-640c0-70.6-57.4-128-128-128h-896c-70.6 0-128 57.4-128 128v640zM256 384c35.346 0 64 28.654 64 64s-28.654 64-64 64v0c-35.346 0-64-28.654-64-64s28.654-64 64-64v0zM320 640c0 35.346-28.654 64-64 64s-64-28.654-64-64v0c0-35.346 28.654-64 64-64s64 28.654 64 64v0zM256 192c35.346 0 64 28.654 64 64s-28.654 64-64 64v0c-35.346 0-64-28.654-64-64s28.654-64 64-64v0zM448 688c-26.6 0-48-21.4-48-48s21.4-48 48-48h448c26.6 0 48 21.4 48 48s-21.4 48-48 48h-448zM448 496c-26.6 0-48-21.4-48-48s21.4-48 48-48h448c26.6 0 48 21.4 48 48s-21.4 48-48 48h-448zM448 304c-26.6 0-48-21.4-48-48s21.4-48 48-48h448c26.6 0 48 21.4 48 48s-21.4 48-48 48h-448z" />
<glyph unicode="&#xe905;" glyph-name="dove" d="M321.6 767c28-34 62-61.8 99-84.4 51.8-31.6 107.4-51.8 155.4-63.2v63c-44.4 60.6-76 134.6-78.8 221.6-0.8 22.6-15 43-36.8 48.8-15.2 4-31.6 0.4-42-11.6-26.6-30.8-65.4-89.2-96.8-174.4zM640 672v-128c-121.6 10.2-370 87.6-438.6 314.4-6.6 21.6-25.6 37.6-48.2 37.6-15.8 0-30.6-7.8-37.6-22-22-45.8-51.6-138.2-51.6-266 0-233.8 160.2-361 236.8-405.6l-277.2-75.6c-10.2-2.8-18.4-10.4-21.8-20.4s-1.6-21.2 4.6-29.6c37-49.2 148.2-140.8 313.6-140.8 7.2 0 14.4 2.4 20 7l151.2 121h148.8c176.8 0 320 143.2 320 320v320l59.8 89.8c2.6 4 4.2 8.8 4.2 13.6 0 13.6-11 24.6-24.6 24.6h-199.4c-88.4 0-160-71.6-160-160zM800 704c17.673 0 32-14.327 32-32s-14.327-32-32-32v0c-17.673 0-32 14.327-32 32s14.327 32 32 32v0z" />
<glyph unicode="&#xe906;" glyph-name="download" d="M576 896c0 35.4-28.6 64-64 64s-64-28.6-64-64v-485.4l-146.8 146.8c-25 25-65.6 25-90.6 0s-25-65.6 0-90.6l256-256c25-25 65.6-25 90.6 0l256 256c25 25 25 65.6 0 90.6s-65.6 25-90.6 0l-146.6-146.8v485.4zM128 256c-70.6 0-128-57.4-128-128v-64c0-70.6 57.4-128 128-128h768c70.6 0 128 57.4 128 128v64c0 70.6-57.4 128-128 128h-203l-90.6-90.6c-50-50-131-50-181 0l-90.4 90.6h-203zM864 144c26.51 0 48-21.49 48-48s-21.49-48-48-48v0c-26.51 0-48 21.49-48 48s21.49 48 48 48v0z" />
<glyph unicode="&#xe907;" glyph-name="down-square-arrow" horiz-adv-x="896" d="M768 0c70.6 0 128 57.4 128 128v640c0 70.6-57.4 128-128 128h-640c-70.6 0-128-57.4-128-128v-640c0-70.6 57.4-128 128-128h640zM448 256c-13.4 0-26 5.6-35.2 15.4l-208 224c-13 14-16.4 34.4-8.8 51.8s25 28.8 44 28.8h416c19 0 36.4-11.4 44-28.8s4.2-37.8-8.8-51.8l-208-224c-9-9.8-21.8-15.4-35.2-15.4z" />
<glyph unicode="&#xe908;" glyph-name="envelope" d="M96 832c-53 0-96-43-96-96 0-30.2 14.2-58.6 38.4-76.8l435.2-326.4c22.8-17 54-17 76.8 0l435.2 326.4c24.2 18.2 38.4 46.6 38.4 76.8 0 53-43 96-96 96h-832zM0 608v-416c0-70.6 57.4-128 128-128h768c70.6 0 128 57.4 128 128v416l-435.2-326.4c-45.6-34.2-108-34.2-153.6 0l-435.2 326.4z" />
<glyph unicode="&#xe909;" glyph-name="eye" horiz-adv-x="1152" d="M576 896c-161.6 0-291-73.6-385.2-161.2-93.6-86.8-156.2-190.8-185.8-262.2-6.6-15.8-6.6-33.4 0-49.2 29.6-71.4 92.2-175.4 185.8-262.2 94.2-87.6 223.6-161.2 385.2-161.2s291 73.6 385.2 161.2c93.6 87 156.2 190.8 186 262.2 6.6 15.8 6.6 33.4 0 49.2-29.8 71.4-92.4 175.4-186 262.2-94.2 87.6-223.6 161.2-385.2 161.2zM288 448c0 159.058 128.942 288 288 288s288-128.942 288-288v0c0-159.058-128.942-288-288-288s-288 128.942-288 288v0zM576 576c0-70.6-57.4-128-128-128-14.2 0-27.8 2.4-40.6 6.6-11 3.6-23.8-3.2-23.4-14.8 0.6-13.8 2.6-27.6 6.4-41.4 27.4-102.4 132.8-163.2 235.2-135.8s163.2 132.8 135.8 235.2c-22.2 83-95.6 138.8-177.2 142.2-11.6 0.4-18.4-12.2-14.8-23.4 4.2-12.8 6.6-26.4 6.6-40.6z" />
<glyph unicode="&#xe90a;" glyph-name="eye-slash" horiz-adv-x="1280" d="M77.6 949.8c-20.8 16.4-51 12.6-67.4-8.2s-12.6-51 8.2-67.4l1184-928c20.8-16.4 51-12.6 67.4 8.2s12.6 51-8.2 67.4l-210.4 164.8c79.2 81.2 132.8 172.2 159.8 236.8 6.6 15.8 6.6 33.4 0 49.2-29.8 71.4-92.4 175.4-186 262.2-94 87.6-223.4 161.2-385 161.2-136.4 0-250-52.6-338.6-121.6l-223.8 175.4zM446.2 661c51 46.6 119.2 75 193.8 75 159 0 288-129 288-288 0-49.8-12.6-96.6-34.8-137.4l-77.2 60.4c16.8 38.6 21.2 82.8 9.6 126.6-22.2 83-95.6 138.8-177.2 142.2-11.6 0.4-18.4-12.2-14.8-23.4 4.2-12.8 6.6-26.4 6.6-40.6 0-20.4-4.8-39.6-13.2-56.6l-180.6 141.6zM746 180.2c-32.8-13-68.6-20.2-106-20.2-159 0-288 129-288 288 0 13.8 1 27.2 2.8 40.4l-188.6 148.6c-45.6-59.4-78.2-118.6-97.2-164.4-6.6-15.8-6.6-33.4 0-49.2 29.8-71.4 92.4-175.4 186-262.2 94-87.6 223.4-161.2 385-161.2 95.6 0 179.8 25.8 252.4 65l-146.4 115.2z" />
<glyph unicode="&#xe90b;" glyph-name="file" horiz-adv-x="768" d="M128 960c-70.6 0-128-57.4-128-128v-768c0-70.6 57.4-128 128-128h512c70.6 0 128 57.4 128 128v576h-256c-35.4 0-64 28.6-64 64v256h-320zM512 960v-256h256l-256 256zM224 448h320c17.6 0 32-14.4 32-32s-14.4-32-32-32h-320c-17.6 0-32 14.4-32 32s14.4 32 32 32zM224 320h320c17.6 0 32-14.4 32-32s-14.4-32-32-32h-320c-17.6 0-32 14.4-32 32s14.4 32 32 32zM224 192h320c17.6 0 32-14.4 32-32s-14.4-32-32-32h-320c-17.6 0-32 14.4-32 32s14.4 32 32 32z" />
<glyph unicode="&#xe90c;" glyph-name="file-image" horiz-adv-x="768" d="M128 960c-70.6 0-128-57.4-128-128v-768c0-70.6 57.4-128 128-128h512c70.6 0 128 57.4 128 128v576h-256c-35.4 0-64 28.6-64 64v256h-320zM512 960v-256h256l-256 256zM128 448c0 35.346 28.654 64 64 64s64-28.654 64-64v0c0-35.346-28.654-64-64-64s-64 28.654-64 64v0zM432 384c10.6 0 20.4-5.2 26.4-13.8l176-256c6.8-9.8 7.4-22.6 2-33s-16.4-17.2-28.4-17.2h-448c-11.6 0-22.2 6.2-27.8 16.2s-5.6 22.4 0.4 32.2l96 160c5.8 9.6 16.2 15.6 27.4 15.6s21.6-5.8 27.4-15.6l25.6-42.8 96.6 140.4c6 8.6 15.8 13.8 26.4 13.8z" />
<glyph unicode="&#xe90d;" glyph-name="file-pdf" d="M0 832c0 70.6 57.4 128 128 128h320v-256c0-35.4 28.6-64 64-64h256v-288h-416c-70.6 0-128-57.4-128-128v-288h-96c-70.6 0-128 57.4-128 128v768zM768 704h-256v256l256-256zM352 256h64c61.8 0 112-50.2 112-112s-50.2-112-112-112h-32v-64c0-17.6-14.4-32-32-32s-32 14.4-32 32v256c0 17.6 14.4 32 32 32zM416 96c26.6 0 48 21.4 48 48s-21.4 48-48 48h-32v-96h32zM608 256h64c53 0 96-43 96-96v-128c0-53-43-96-96-96h-64c-17.6 0-32 14.4-32 32v256c0 17.6 14.4 32 32 32zM672 0c17.6 0 32 14.4 32 32v128c0 17.6-14.4 32-32 32h-32v-192h32zM832 224c0 17.6 14.4 32 32 32h96c17.6 0 32-14.4 32-32s-14.4-32-32-32h-64v-64h64c17.6 0 32-14.4 32-32s-14.4-32-32-32h-64v-96c0-17.6-14.4-32-32-32s-32 14.4-32 32v256z" />
<glyph unicode="&#xe90e;" glyph-name="file-word" horiz-adv-x="768" d="M128 960c-70.6 0-128-57.4-128-128v-768c0-70.6 57.4-128 128-128h512c70.6 0 128 57.4 128 128v576h-256c-35.4 0-64 28.6-64 64v256h-320zM512 960v-256h256l-256 256zM222 445.8l53.6-178.4 63.2 180.6c6.8 19.2 25 32.2 45.4 32.2s38.6-12.8 45.4-32.2l63.2-180.6 53.2 178.4c7.6 25.4 34.4 39.8 59.8 32.2s39.8-34.4 32.2-59.8l-96-320c-6-20-24-33.8-44.8-34.2s-39.6 12.4-46.4 32.2l-66.8 190.6-66.6-190.6c-6.8-19.6-25.6-32.6-46.4-32.2s-39 14.2-44.8 34.2l-96 320c-7.6 25.4 6.8 52.2 32.2 59.8s52.2-6.8 59.8-32.2z" />
<glyph unicode="&#xe90f;" glyph-name="home" horiz-adv-x="1152" d="M1151.6 449c0-36-30-64.2-64-64.2h-64l1.4-320.4c0-5.4-0.4-10.8-1-16.2v-32.2c0-44.2-35.8-80-80-80h-32c-2.2 0-4.4 0-6.6 0.2-2.8-0.2-5.6-0.2-8.4-0.2h-113c-44.2 0-80 35.8-80 80v176c0 35.4-28.6 64-64 64h-128c-35.4 0-64-28.6-64-64v-176c0-44.2-35.8-80-80-80h-111.8c-3 0-6 0.2-9 0.4-2.4-0.2-4.8-0.4-7.2-0.4h-32c-44.2 0-80 35.8-80 80v224c0 1.8 0 3.8 0.2 5.6v139.2h-64.2c-36 0-64 28-64 64.2 0 18 6 34 20 48l512.8 447c14 14 30 16 44 16s30-4 42-14l510.8-449c16-14 24-30 22-48z" />
<glyph unicode="&#xe910;" glyph-name="id" horiz-adv-x="1152" d="M0 768h1152c0 70.6-57.4 128-128 128h-896c-70.6 0-128-57.4-128-128zM0 704v-576c0-70.6 57.4-128 128-128h896c70.6 0 128 57.4 128 128v576h-1152zM128 149.4c0 59 47.8 106.6 106.6 106.6h234.8c59 0 106.6-47.8 106.6-106.6 0-11.8-9.6-21.4-21.4-21.4h-405.2c-11.8 0-21.4 9.6-21.4 21.4zM352 576c70.692 0 128-57.308 128-128s-57.308-128-128-128v0c-70.692 0-128 57.308-128 128s57.308 128 128 128v0zM704 544c0 17.6 14.4 32 32 32h256c17.6 0 32-14.4 32-32s-14.4-32-32-32h-256c-17.6 0-32 14.4-32 32zM704 416c0 17.6 14.4 32 32 32h256c17.6 0 32-14.4 32-32s-14.4-32-32-32h-256c-17.6 0-32 14.4-32 32zM704 288c0 17.6 14.4 32 32 32h256c17.6 0 32-14.4 32-32s-14.4-32-32-32h-256c-17.6 0-32 14.4-32 32z" />
<glyph unicode="&#xe911;" glyph-name="in-session" d="M435.8 748.2l245.6-245.6c14.4-14.4 22.6-34.2 22.6-54.6s-8.2-40.2-22.6-54.6l-245.6-245.6c-12.8-12.8-30-19.8-48-19.8-37.4 0-67.8 30.4-67.8 67.8v124.2h-256c-35.4 0-64 28.6-64 64v128c0 35.4 28.6 64 64 64h256v124.2c0 37.4 30.4 67.8 67.8 67.8 18 0 35.2-7.2 48-19.8zM704 128h128c35.4 0 64 28.6 64 64v512c0 35.4-28.6 64-64 64h-128c-35.4 0-64 28.6-64 64s28.6 64 64 64h128c106 0 192-86 192-192v-512c0-106-86-192-192-192h-128c-35.4 0-64 28.6-64 64s28.6 64 64 64z" />
<glyph unicode="&#xe912;" glyph-name="landmark" d="M480.2 951.6c19.6 11.2 43.8 11.2 63.6 0l343.6-196.2 8.6-3.4v-1.8l95.8-54.8c25.2-14.4 37.6-44 30.2-72s-32.8-47.6-61.8-47.6h-896.2c-29 0-54.4 19.6-61.8 47.6s5 57.6 30.2 72l95.6 54.8v1.8l8.8 3.2 343.4 196.4zM128 512h128v-384h80v384h128v-384h96v384h128v-384h80v384h128v-392.6c1.2-0.6 2.4-1.4 3.6-2.2l96-64c23.4-15.6 34-44.8 25.8-71.8s-33.2-45.4-61.4-45.4h-896c-28.2 0-53 18.4-61.2 45.4s2.2 56.2 25.8 71.8l96 64c1.2 0.8 2.4 1.4 3.6 2.2v392.6z" />
<glyph unicode="&#xe913;" glyph-name="laptop" horiz-adv-x="1280" d="M256 896c-70.6 0-128-57.4-128-128v-512h128v512h768v-512h128v512c0 70.6-57.4 128-128 128h-768zM38.4 192c-21.2 0-38.4-17.2-38.4-38.4 0-84.8 68.8-153.6 153.6-153.6h972.8c84.8 0 153.6 68.8 153.6 153.6 0 21.2-17.2 38.4-38.4 38.4h-1203.2z" />
<glyph unicode="&#xe914;" glyph-name="left-arrow" horiz-adv-x="640" d="M82.8 493.2c-25-25-25-65.6 0-90.6l320-320c25-25 65.6-25 90.6 0s25 65.6 0 90.6l-274.8 274.8 274.6 274.8c25 25 25 65.6 0 90.6s-65.6 25-90.6 0l-320-320z" />
<glyph unicode="&#xe915;" glyph-name="location-pin" horiz-adv-x="768" d="M431.4-38.4c102.6 128.4 336.6 439.6 336.6 614.4 0 212-172 384-384 384s-384-172-384-384c0-174.8 234-486 336.6-614.4 24.6-30.6 70.2-30.6 94.8 0zM384 704c70.692 0 128-57.308 128-128s-57.308-128-128-128v0c-70.692 0-128 57.308-128 128s57.308 128 128 128v0z" />
<glyph unicode="&#xe916;" glyph-name="magnifying-glass" d="M832 544c0-91.8-29.8-176.6-80-245.4l253.2-253.4c25-25 25-65.6 0-90.6s-65.6-25-90.6 0l-253.2 253.4c-68.8-50.4-153.6-80-245.4-80-229.8 0-416 186.2-416 416s186.2 416 416 416 416-186.2 416-416zM416 256c159.058 0 288 128.942 288 288s-128.942 288-288 288v0c-159.058 0-288-128.942-288-288s128.942-288 288-288v0z" />
<glyph unicode="&#xe917;" glyph-name="map" horiz-adv-x="1152" d="M768 7.8l-384 109.8v770.6l384-109.8v-770.6zM832 10.2v773l254.2 101.8c31.6 12.6 65.8-10.6 65.8-44.6v-669.6c0-19.6-12-37.2-30.2-44.6l-289.8-115.8zM30.2 769.8l289.8 115.8v-772.8l-254.2-101.8c-31.6-12.6-65.8 10.6-65.8 44.6v669.6c0 19.6 12 37.2 30.2 44.6z" />
<glyph unicode="&#xe918;" glyph-name="out-session" d="M755.8 748.2l245.6-245.6c14.4-14.4 22.6-34.2 22.6-54.6s-8.2-40.2-22.6-54.6l-245.6-245.6c-12.8-12.8-30-19.8-48-19.8-37.4 0-67.8 30.4-67.8 67.8v124.2h-256c-35.4 0-64 28.6-64 64v128c0 35.4 28.6 64 64 64h256v124.2c0 37.4 30.4 67.8 67.8 67.8 18 0 35.2-7.2 48-19.8zM320 768h-128c-35.4 0-64-28.6-64-64v-512c0-35.4 28.6-64 64-64h128c35.4 0 64-28.6 64-64s-28.6-64-64-64h-128c-106 0-192 86-192 192v512c0 106 86 192 192 192h128c35.4 0 64-28.6 64-64s-28.6-64-64-64z" />
<glyph unicode="&#xe919;" glyph-name="percent" horiz-adv-x="768" d="M749.2 722.8c25 25 25 65.6 0 90.6s-65.6 25-90.6 0l-640-640c-25-25-25-65.6 0-90.6s65.6-25 90.6 0l640 640zM256 704c0 70.692-57.308 128-128 128s-128-57.308-128-128v0c0-70.692 57.308-128 128-128s128 57.308 128 128v0zM768 192c0 70.692-57.308 128-128 128s-128-57.308-128-128v0c0-70.692 57.308-128 128-128s128 57.308 128 128v0z" />
<glyph unicode="&#xe91a;" glyph-name="question" horiz-adv-x="640" d="M160 640c0 70.6 57.4 128 128 128h64c70.6 0 128-57.4 128-128v-7.2c0-43.6-22.2-84.2-58.8-107.6l-84.4-54.2c-50.4-32.4-80.8-88.2-80.8-148v-3c0-35.4 28.6-64 64-64s64 28.6 64 64v2.8c0 16.4 8.4 31.6 22 40.4l84.4 54.2c73.2 47.2 117.6 128.2 117.6 215.4v7.2c0 141.4-114.6 256-256 256h-64c-141.4 0-256-114.6-256-256 0-35.4 28.6-64 64-64s64 28.6 64 64zM320 0c44.183 0 80 35.817 80 80s-35.817 80-80 80v0c-44.183 0-80-35.817-80-80s35.817-80 80-80v0z" />
<glyph unicode="&#xe91b;" glyph-name="right-arrow" horiz-adv-x="640" d="M557.2 493.2c25-25 25-65.6 0-90.6l-320-320c-25-25-65.6-25-90.6 0s-25 65.6 0 90.6l274.8 274.8-274.6 274.8c-25 25-25 65.6 0 90.6s65.6 25 90.6 0l320-320z" />
<glyph unicode="&#xe91c;" glyph-name="up-square-arrow" horiz-adv-x="896" d="M128 896c-70.6 0-128-57.4-128-128v-640c0-70.6 57.4-128 128-128h640c70.6 0 128 57.4 128 128v640c0 70.6-57.4 128-128 128h-640zM448 640c13.4 0 26-5.6 35.2-15.4l208-224c13-14 16.4-34.4 8.8-51.8s-25-28.8-44-28.8h-416c-19 0-36.4 11.4-44 28.8s-4.2 37.8 8.8 51.8l208 224c9 9.8 21.8 15.4 35.2 15.4z" />
<glyph unicode="&#xe91d;" glyph-name="user" horiz-adv-x="896" d="M448 448c141.385 0 256 114.615 256 256s-114.615 256-256 256v0c-141.385 0-256-114.615-256-256s114.615-256 256-256v0zM356.6 352c-197 0-356.6-159.6-356.6-356.6 0-32.8 26.6-59.4 59.4-59.4h777.2c32.8 0 59.4 26.6 59.4 59.4 0 197-159.6 356.6-356.6 356.6h-182.8z" />
<glyph unicode="&#xe91e;" glyph-name="close" horiz-adv-x="768" d="M685.2 658.8c25 25 25 65.6 0 90.6s-65.6 25-90.6 0l-210.6-210.8-210.8 210.6c-25 25-65.6 25-90.6 0s-25-65.6 0-90.6l210.8-210.6-210.6-210.8c-25-25-25-65.6 0-90.6s65.6-25 90.6 0l210.6 210.8 210.8-210.6c25-25 65.6-25 90.6 0s25 65.6 0 90.6l-210.8 210.6 210.6 210.8z" />
<glyph unicode="&#xe91f;" glyph-name="link-solid-full" d="M722.4 704c-26.56 0-52.32-7.2-74.88-20.32-25.28 25.6-54.72 47.040-87.2 63.2 45.12 38.4 102.56 59.52 162.080 59.52 138.24 0 250.4-112 250.4-250.4 0-66.4-26.4-130.080-73.28-176.96l-113.76-113.76c-46.88-46.88-110.56-73.28-176.96-73.28-138.24 0-250.4 112-250.4 250.4 0 2.4 0 4.8 0.16 7.2 0.8 28.32 24.32 50.56 52.64 49.76s50.56-24.32 49.76-52.64c0-1.44 0-2.88 0-4.16 0-81.76 66.24-148 148-148 39.2 0 76.8 15.52 104.64 43.36l113.76 113.76c27.68 27.68 43.36 65.44 43.36 104.64 0 81.76-66.24 148-148 148zM491.52 580.32c-3.040 1.28-6.080 3.040-8.8 4.96-20.16 10.4-43.2 16.32-67.36 16.32-39.2 0-76.8-15.52-104.64-43.36l-113.76-113.76c-27.68-27.68-43.36-65.44-43.36-104.64 0-81.76 66.24-148 148-148 26.4 0 52.16 7.040 74.72 20.16 25.28-25.6 54.72-47.040 87.36-63.2-45.12-38.24-102.4-59.52-162.080-59.52-138.24 0-250.4 112-250.4 250.4 0 66.4 26.4 130.080 73.28 176.96l113.76 113.76c46.88 46.88 110.56 73.28 176.96 73.28 138.56 0 250.4-112.96 250.4-251.040 0-2.080 0-4.16 0-6.24-0.64-28.32-24.16-50.56-52.48-49.92s-50.56 24.16-49.92 52.48c0 1.28 0 2.4 0 3.68 0 53.92-28.8 101.28-71.68 127.36z" />
<glyph unicode="&#xe920;" glyph-name="wifi-solid-full" d="M512 704c-145.44 0-277.12-57.6-373.92-151.36-20.32-19.68-52.8-19.2-72.32 1.12s-19.2 52.8 1.12 72.32c115.040 111.68 272.16 180.32 445.12 180.32s330.080-68.64 445.28-180.32c20.32-19.68 20.8-52.16 1.12-72.32s-52.16-20.8-72.32-1.12c-96.96 93.76-228.64 151.36-374.080 151.36zM435.2 166.4c0 42.4 34.4 76.8 76.8 76.8s76.8-34.4 76.8-76.8c0-42.4-34.4-76.8-76.8-76.8s-76.8 34.4-76.8 76.8zM320 335.68c-18.72-21.28-51.040-23.2-72.32-4.48s-23.2 51.040-4.48 72.32c65.6 74.24 161.76 121.28 268.8 121.28s203.2-47.040 268.8-121.28c18.72-21.28 16.64-53.6-4.48-72.32s-53.6-16.64-72.32 4.48c-47.040 53.28-115.52 86.72-192 86.72s-144.96-33.44-192-86.72z" />
<glyph unicode="&#xe921;" glyph-name="whatsapp-brands-solid-full" d="M763.040 702.24c-67.040 67.2-156.32 104.16-251.2 104.16-195.84 0-355.2-159.36-355.2-355.2 0-62.56 16.32-123.68 47.36-177.6l-50.4-184 188.32 49.44c51.84-28.32 110.24-43.2 169.76-43.2h0.16c195.68 0 358.56 159.36 358.56 355.2 0 94.88-40.32 184-107.36 251.2zM511.84 155.68c-53.12 0-105.12 14.24-150.4 41.12l-10.72 6.4-111.68-29.28 29.76 108.96-7.040 11.2c-29.6 47.040-45.12 101.28-45.12 157.12 0 162.72 132.48 295.2 295.36 295.2 78.88 0 152.96-30.72 208.64-86.56s89.92-129.92 89.76-208.8c0-162.88-135.84-295.36-298.56-295.36zM673.76 376.8c-8.8 4.48-52.48 25.92-60.64 28.8-8.16 3.040-14.080 4.48-20-4.48s-22.88-28.8-28.16-34.88c-5.12-5.92-10.4-6.72-19.2-2.24-52.16 26.080-86.4 46.56-120.8 105.6-9.12 15.68 9.12 14.56 26.080 48.48 2.88 5.92 1.44 11.040-0.8 15.52s-20 48.16-27.36 65.92c-7.2 17.28-14.56 14.88-20 15.2-5.12 0.32-11.040 0.32-16.96 0.32s-15.52-2.24-23.68-11.040c-8.16-8.96-31.040-30.4-31.040-74.080s31.84-85.92 36.16-91.84c4.48-5.92 62.56-95.52 151.68-134.080 56.32-24.32 78.4-26.4 106.56-22.24 17.12 2.56 52.48 21.44 59.84 42.24s7.36 38.56 5.12 42.24c-2.080 4-8 6.24-16.8 10.56z" />
<glyph unicode="&#xe922;" glyph-name="clock-rotate-left-solid-full" d="M512 755.2c169.6 0 307.2-137.6 307.2-307.2s-137.6-307.2-307.2-307.2c-104.32 0-196.64 52-252.16 131.68-16.16 23.2-48.16 28.8-71.36 12.64s-28.8-48.16-12.64-71.36c73.92-105.92 196.96-175.36 336.16-175.36 226.24 0 409.6 183.36 409.6 409.6s-183.36 409.6-409.6 409.6c-137.12 0-258.4-67.36-332.8-170.72v42.72c0 28.32-22.88 51.2-51.2 51.2s-51.2-22.88-51.2-51.2v-179.2c0-28.32 22.88-51.2 51.2-51.2h39.36c0.8 0 1.6 0 2.4 0h137.6c28.32 0 51.2 22.88 51.2 51.2s-22.88 51.2-51.2 51.2h-61.28c52.96 91.84 152.32 153.6 265.92 153.6zM550.4 614.4c0 21.28-17.12 38.4-38.4 38.4s-38.4-17.12-38.4-38.4v-166.4c0-10.24 4-20 11.2-27.2l115.2-115.2c15.040-15.040 39.36-15.040 54.24 0s15.040 39.36 0 54.24l-104 104v150.56z" />
<glyph unicode="&#xe923;" glyph-name="handshake-solid-full" d="M481.44 721.28l-186.56-207.36c-7.36-8.16-7.040-20.8 0.8-28.64 48.8-48.8 128-48.8 176.8 0l50.88 50.88c6.72 6.72 15.2 10.4 23.84 11.040 10.88 0.96 22.080-2.72 30.4-11.040l282.56-280.16 112.64 89.6v460.8l-179.2-102.4-38.080 25.44c-25.28 16.8-54.88 25.76-85.28 25.76h-112.64c-1.76 0-3.68 0-5.44-0.16-27.040-1.44-52.48-13.6-70.72-33.76zM237.76 565.28l170.88 189.92h-63.36c-40.8 0-79.84-16.16-108.64-44.96l-6.24-6.24-179.2 102.4v-460.8l250.24-208.48c36.8-30.72 83.2-47.52 131.040-47.52h25.12l-11.2 11.2c-15.040 15.040-15.040 39.36 0 54.24s39.36 15.040 54.24 0l65.6-65.6h14.4c30.56 0 60.48 6.88 87.68 19.68l-42.72 42.88c-15.040 15.040-15.040 39.36 0 54.24s39.36 15.040 54.24 0l51.2-51.2 28 28c14.24 14.24 18.4 34.88 12.16 52.96l-220.64 218.88-23.84-23.84c-78.88-78.88-206.56-78.88-285.44 0-36.8 36.8-38.24 95.84-3.52 134.4z" />
<glyph unicode="&#xe924;" glyph-name="bell-solid-full" d="M512 857.6c-28.32 0-51.2-22.88-51.2-51.2v-5.12c-116.8-23.68-204.8-127.040-204.8-250.88v-34.72c0-76.96-26.24-151.68-74.24-211.84l-15.68-19.52c-8.16-10.080-12.48-22.56-12.48-35.52 0-31.36 25.44-56.8 56.8-56.8h603.040c31.36 0 56.8 25.44 56.8 56.8 0 12.96-4.32 25.44-12.48 35.52l-15.68 19.52c-47.84 60.16-74.080 134.88-74.080 211.84v34.72c0 123.84-88 227.2-204.8 250.88v5.12c0 28.32-22.88 51.2-51.2 51.2zM412.8 115.2c11.36-44.16 51.52-76.8 99.2-76.8s87.84 32.64 99.2 76.8h-198.4z" />
<glyph unicode="&#xe925;" glyph-name="store-solid-full" d="M151.52 741.92c11.040 38.24 46.080 64.48 85.92 64.48h550.4c39.84 0 74.88-26.24 86.080-64.48l37.44-128.32c20.48-69.92-32.16-140-104.96-140-42.080 0-79.040 23.84-97.28 59.36-18.56-35.040-55.36-59.36-98.24-59.36-42.56 0-79.52 24-98.080 59.2-18.56-35.2-55.52-59.2-98.080-59.2-42.88 0-79.68 24.16-98.24 59.36-18.24-35.36-55.2-59.36-97.28-59.36-72.96 0-125.44 69.92-104.96 140l37.28 128.32zM256.64 294.4h512v106.24c12.16-2.56 24.8-3.84 37.6-3.84 22.88 0 44.8 4.16 64.8 11.52v-241.92c0-42.4-34.4-76.8-76.8-76.8h-563.2c-42.4 0-76.8 34.4-76.8 76.8v241.92c20-7.36 41.76-11.52 64.8-11.52 12.96 0 25.44 1.28 37.6 3.84v-106.24z" />
<glyph unicode="&#xe926;" glyph-name="circle-info-solid-full" d="M512 38.4c226.24 0 409.6 183.36 409.6 409.6s-183.36 409.6-409.6 409.6c-226.24 0-409.6-183.36-409.6-409.6s183.36-409.6 409.6-409.6zM460.8 601.6c0 28.32 22.88 51.2 51.2 51.2s51.2-22.88 51.2-51.2c0-28.32-22.88-51.2-51.2-51.2s-51.2 22.88-51.2 51.2zM448 499.2h76.8c21.28 0 38.4-17.12 38.4-38.4v-140.8h12.8c21.28 0 38.4-17.12 38.4-38.4s-17.12-38.4-38.4-38.4h-128c-21.28 0-38.4 17.12-38.4 38.4s17.12 38.4 38.4 38.4h38.4v102.4h-38.4c-21.28 0-38.4 17.12-38.4 38.4s17.12 38.4 38.4 38.4z" />
<glyph unicode="&#xe927;" glyph-name="lock-solid-full" d="M409.6 704v-102.4h204.8v102.4c0 56.48-45.92 102.4-102.4 102.4s-102.4-45.92-102.4-102.4zM307.2 601.6v102.4c0 113.12 91.68 204.8 204.8 204.8s204.8-91.68 204.8-204.8v-102.4c56.48 0 102.4-45.92 102.4-102.4v-358.4c0-56.48-45.92-102.4-102.4-102.4h-409.6c-56.48 0-102.4 45.92-102.4 102.4v358.4c0 56.48 45.92 102.4 102.4 102.4z" />
<glyph unicode="&#xe928;" glyph-name="check-solid-full" d="M849.28 745.44c22.88-16.64 28-48.64 11.36-71.52l-409.6-563.2c-8.8-12.16-22.4-19.68-37.44-20.96s-29.6 4.32-40.16 14.88l-204.8 204.8c-20 20-20 52.48 0 72.48s52.48 20 72.48 0l162.4-162.4 374.4 514.72c16.64 22.88 48.64 28 71.52 11.36z" />
<glyph unicode="&#xe929;" glyph-name="minus-solid-full" d="M153.6 448c0 28.32 22.88 51.2 51.2 51.2h614.4c28.32 0 51.2-22.88 51.2-51.2s-22.88-51.2-51.2-51.2h-614.4c-28.32 0-51.2 22.88-51.2 51.2z" />
<glyph unicode="&#xe92a;" glyph-name="plus-solid-full" d="M563.2 755.2c0 28.32-22.88 51.2-51.2 51.2s-51.2-22.88-51.2-51.2v-256h-256c-28.32 0-51.2-22.88-51.2-51.2s22.88-51.2 51.2-51.2h256v-256c0-28.32 22.88-51.2 51.2-51.2s51.2 22.88 51.2 51.2v256h256c28.32 0 51.2 22.88 51.2 51.2s-22.88 51.2-51.2 51.2h-256v256z" />
<glyph unicode="&#xe92b;" glyph-name="trash-solid-full" d="M372.32 848.16l-13.92-41.76h-153.6c-28.32 0-51.2-22.88-51.2-51.2s22.88-51.2 51.2-51.2h614.4c28.32 0 51.2 22.88 51.2 51.2s-22.88 51.2-51.2 51.2h-153.6l-13.92 41.76c-7.040 20.96-26.56 35.040-48.64 35.040h-182.080c-22.080 0-41.6-14.080-48.64-35.040zM819.2 627.2h-614.4l33.76-516.96c2.56-40.48 36.16-71.84 76.64-71.84h393.6c40.48 0 74.080 31.36 76.64 71.84l33.76 516.96z" />
<glyph unicode="&#xe92c;" glyph-name="cart-shopping-solid-full" d="M38.4 883.2c-21.28 0-38.4-17.12-38.4-38.4s17.12-38.4 38.4-38.4h72.48c6.24 0 11.52-4.48 12.64-10.56l83.36-458.080c9.92-54.72 57.6-94.56 113.28-94.56h409.44c21.28 0 38.4 17.12 38.4 38.4s-17.12 38.4-38.4 38.4h-409.44c-18.56 0-34.4 13.28-37.76 31.52l-8.16 45.28h485.76c49.28 0 91.52 35.040 100.64 83.52l49.6 265.44c5.92 31.52-18.24 60.64-50.4 60.64h-660.32l-0.64 3.2c-7.68 42.56-44.8 73.6-88.16 73.6h-72.32zM332.8 38.4c42.4 0 76.8 34.4 76.8 76.8s-34.4 76.8-76.8 76.8c-42.4 0-76.8-34.4-76.8-76.8s34.4-76.8 76.8-76.8zM691.2 38.4c42.4 0 76.8 34.4 76.8 76.8s-34.4 76.8-76.8 76.8c-42.4 0-76.8-34.4-76.8-76.8s34.4-76.8 76.8-76.8z" />
<glyph unicode="&#xe92d;" glyph-name="IEEE" horiz-adv-x="1038" d="M481.348 815.768c34.4 27.028 77.399 4.914 105.656-19.657 33.1-25.177 62.332-50.124 90.116-76.578l-0.432 0.408 4.914-2.457c75.598-69.72 143.049-146.139 202.129-228.942l3.039-4.483c8.42-10.335 13.521-23.666 13.521-38.188 0-4.313-0.45-8.52-1.305-12.578l0.070 0.396c-19.657-49.142-58.971-87.227-93.37-130.227-74.942-79.856-153.569-158.484-242.025-219.911-18.428-12.286-41.771-24.571-63.885-14.743-65.113 34.4-119.17 89.684-176.912 140.055-67.647 61.207-127.486 128.846-179.268 202.555l-2.558 3.842c-6.201 9.684-9.885 21.498-9.885 34.172 0 0.944 0.020 1.884 0.061 2.818l-0.005-0.133c6.143 25.8 24.571 46.685 40.542 68.799 63.198 77.29 129.953 146.382 201.976 209.621l1.964 1.69 7.371 7.371c34.4 28.257 66.342 52.828 98.284 76.17zM582.089 894.395l-39.314 55.285c-4.571 3.066-9.817 5.943-15.318 8.346l-0.653 0.254c-2.739 0.787-5.884 1.24-9.135 1.24-9.365 0-17.854-3.756-24.040-9.844l0.005 0.004-70.028-90.913c-112.403-141.813-241.081-263.855-384.928-365.921l-5.752-3.874c-11.057-8.6-28.257-17.2-31.942-31.942-0.386-1.982-0.606-4.26-0.606-6.591 0-10.502 4.482-19.958 11.638-26.558l0.025-0.023c122.765-85.021 229.83-178.434 325.563-282.44l1.233-1.356c17.2-18.428 31.942-36.857 49.142-54.056 29.485-38.085 62.656-77.399 89.684-119.17 8.6-8.6 9.828-23.343 23.343-27.028 4.86-2.325 10.564-3.682 16.585-3.682s11.725 1.358 16.823 3.784l-0.237-0.102 9.828 9.828c124.141 173.96 270.863 321.854 437.997 443.376l5.511 3.818c17.2 14.743 49.142 20.885 50.371 49.142-1.312 13.852-8.732 25.738-19.501 33.071l-0.156 0.1h-2.457c-92.865 63.002-174.022 130.505-248.074 205.074l-0.094 0.095-84.77 88.456c-35.628 38.085-68.799 81.085-100.741 121.627zM494.862 794.882c35.628 23.343 66.342-9.828 93.37-28.257 104.427-84.77 203.94-180.597 278.882-289.939 6.015-8.343 9.62-18.772 9.62-30.043 0-7.818-1.734-15.23-4.839-21.874l0.133 0.318c-22.19-34.608-45.667-64.723-71.601-92.515l0.344 0.373v-1.229c-62.656-66.342-127.77-135.141-199.026-190.426-34.4-20.885-66.342-67.57-111.798-39.314-106.082 79.272-198.782 166.904-280.503 264.076l-2.064 2.521c-13.514 22.114-35.628 39.314-45.457 63.885-13.514 33.171 15.971 57.742 33.171 82.313 87.395 106.292 185.937 198.592 295.15 276.96l4.617 3.15zM516.976 726.083l-9.828-30.714-47.914-136.37c12.286-1.229 27.028 0 38.085-1.229v-1.229l-7.371-154.798 1.229-1.229c7.557-0.88 16.313-1.382 25.185-1.382s17.628 0.502 26.24 1.48l-1.054-0.097v2.457l-6.143 149.884 1.229 4.914 41.771 1.229c-20.885 55.285-41.771 110.57-60.199 167.083zM354.806 512.315c-27.028-13.514-66.342-33.171-61.428-70.028 6.143-19.657 27.028-33.171 44.228-40.542 94.599-41.771 219.911-42.999 320.653-12.286 24.571 9.828 57.742 23.343 62.656 54.056 0 24.571-27.028 40.542-45.457 50.371v1.229c5.813 2.328 12.802 4.446 20.005 5.985l0.88 0.158v1.229c-33.171 6.143-66.342 14.743-98.284 23.343 6.143-14.743 11.057-29.485 15.971-44.228 8.443 2.802 18.785 5.363 29.381 7.182l1.333 0.189c17.2-6.143 41.771-15.971 44.228-38.085 2.457-19.657-19.657-29.485-34.4-38.085-38.585-14.278-83.154-22.539-129.651-22.539-36.497 0-71.806 5.089-105.254 14.597l2.709-0.658c-20.885 6.143-51.599 14.743-54.056 41.771 14.743 35.628 54.056 42.999 85.999 51.599-17.2 11.057-33.171 19.657-49.142 31.942-18.913-3.427-35.809-9.407-51.313-17.657l0.942 0.457zM489.947 358.746c-2.457-55.285-3.686-105.656-7.371-160.941 10.333-1.466 22.269-2.304 34.4-2.304s24.066 0.837 35.751 2.457l-1.351-0.153-6.143 153.569-1.229 7.371c-8.106-0.88-17.509-1.383-27.028-1.383s-18.922 0.502-28.182 1.482l1.154-0.099z" />
<glyph unicode="&#xe92e;" glyph-name="RAS" horiz-adv-x="1210" d="M1190.633 809.193c19.549-52.131 17.687-123.811 2.793-182.458-13.964-55.855-37.236-104.262-62.371-147.084-102.4-178.735-264.378-299.753-424.495-415.185-10.24 13.033-16.756 28.858-26.065 45.615-3.724 6.516-8.378 14.895-13.033 23.273-3.724 6.516-11.171 17.687-12.102 24.204 0 8.378 12.102 26.065 16.756 36.305 93.091 167.564 187.113 345.367 279.273 510.138 21.411 0.931 49.338 0.931 70.749 0 4.655-15.825 5.585-33.513 7.447-50.269 3.724-34.444 7.447-70.749 11.171-106.124 1.862-17.687 0.931-35.375 7.447-50.269 17.687 3.724 29.789 21.411 40.029 35.375 32.582 43.753 58.647 99.607 66.095 166.633 11.171 100.538-44.684 163.84-126.604 179.665-48.407 10.24-97.745 2.793-139.636-7.447-84.713-20.48-150.807-53.062-216.902-93.091-24.204-13.964-48.407-28.858-71.68-45.615-7.447-5.585-16.756-13.964-23.273-14.895-6.516 0-15.825 5.585-24.204 8.378-23.273 9.309-50.269 14.895-81.92 15.825-43.753 0.931-77.265-11.171-109.847-18.618 4.655 11.171 16.756 16.756 26.065 23.273 64.233 48.407 136.844 92.16 215.040 126.604 90.298 40.96 188.975 73.542 311.855 79.127 140.567 9.309 240.175-44.684 277.411-143.36v0zM1089.164 66.327c2.793-28.858 7.447-58.647 5.585-84.713-6.516-3.724-18.618-2.793-32.582-2.793-11.171 0-26.996-1.862-32.582 2.793-4.655 2.793-10.24 17.687-13.964 25.135-26.065 52.131-49.338 100.538-77.265 151.738-4.655 8.378-12.102 20.48-12.102 26.065 0.931 7.447 13.033 10.24 16.756 16.756 40.029 35.375 77.265 74.473 113.571 114.502 9.309 8.378 9.309-8.378 10.24-14.895 7.447-78.196 14.895-156.393 22.342-234.589v0zM700.975 7.68c3.724-6.516 9.309-13.964 8.378-21.411-5.585-8.378-21.411-5.585-33.513-5.585-13.033 0-27.927-1.862-38.167 0.931-6.516 1.862-16.756 11.171-24.204 16.756-81.92 67.025-164.771 134.051-246.691 200.145-30.72 24.204-61.44 46.545-89.367 73.542-1.862 13.964-0.931 33.513 0 47.476 66.095 17.687 118.225 47.476 162.909 89.367 21.411 19.549 40.029 41.891 55.855 69.818 14.895 26.065 31.651 56.785 28.858 97.745-4.655 58.647-50.269 87.505-112.64 87.505-48.407 0-82.851-16.756-118.225-31.651-11.171-4.655-24.204-13.964-37.236-7.447 2.793 7.447 11.171 13.033 17.687 17.687 45.615 32.582 107.055 66.095 178.735 70.749 118.225 7.447 186.182-67.025 197.353-169.425 13.033-121.018-46.545-201.076-121.018-242.036 56.785-99.607 113.571-196.422 171.287-294.167v0zM538.996 10.473c7.447-5.585 13.964-11.171 18.618-17.687-49.338-21.411-102.4-35.375-160.116-45.615-59.578-10.24-126.604-13.033-188.975-2.793-111.709 20.48-194.56 85.644-204.8 207.593-5.585 63.302 9.309 124.742 28.858 175.011s45.615 93.091 74.473 131.258c58.647 77.265 129.396 148.015 251.345 161.978 35.375 3.724 67.025-3.724 88.436-20.48 4.655-3.724 16.756-12.102 16.756-18.618-0.931-5.585-19.549-13.964-26.065-17.687-60.509-39.098-120.087-86.575-169.425-133.12-43.753-42.822-84.713-87.505-117.295-141.498-29.789-50.269-64.233-133.12-30.72-199.215 40.96-83.782 167.564-104.262 290.444-85.644 26.065 3.724 54.924 9.309 81.92 15.825 9.309 1.862 18.618 6.516 26.065 6.516 5.585-1.862 14.895-11.171 20.48-15.825z" />
<glyph unicode="&#xe92f;" glyph-name="WIE" horiz-adv-x="1322" d="M1018.034 217.937v-192c0-48.762 0-51.874 35.275-56.089v-14.914h-116.069v15.497c35.404 3.955 35.404 7.781 35.404 55.83v111.271c-1.556 27.493 4.993 24.9-29.050 14.006zM1131.315 97.589c0-50.837 15.044-126.055 79.887-126.055 34.821 0 64.843 19.453 85.139 47.206l8.819-8.3c-21.787-35.858-58.359-61.277-100.701-61.277-72.624 0-125.536 59.202-125.536 130.27 0 66.464 46.168 134.938 118.792 134.938 64.843 0 109.52-55.506 109.52-116.717zM1254.841 117.042c3.112 35.793-12.45 79.887-57.645 79.887-44.093 0-62.249-44.612-63.287-79.887zM375.246 462.784c-61.601-48.697-107.38-123.202-114.513-181.56-5.771-48.697 9.986-88.77 61.536-91.623 54.403-2.853 111.66 44.417 151.733 87.343 31.514 34.367 60.109 85.852 62.963 115.939 0.457 2.666 0.718 5.737 0.718 8.869 0 10.47-2.919 20.258-7.989 28.595l0.138-0.244c-2.853 5.706-5.771 7.198-4.344 10.051s7.198 0 11.477-4.344 18.61-21.463 15.757-54.338c-1.427-38.906-27.234-84.296-58.359-120.284-37.22-40.073-110.233-88.77-174.622-84.296s-95.903 45.779-88.77 107.315c7.133 57.256 55.83 131.696 131.696 188.952 68.734 51.874 154.586 87.343 229.025 87.343 81.637 0 173.26-31.514 158.93-150.306-8.559-87.343-161.783-279.149-256.259-373.625v-1.427c45.779 31.514 93.050 67.307 163.21 118.792 60.109 42.926 131.696 95.903 177.475 131.696 17.183 48.697 37.285 100.247 63.027 141.747 34.367 54.403 71.327 81.572 101.609 81.572 25.937 0 44.417-22.89 32.94-57.256-18.61-58.359-91.623-108.806-130.27-146.026-21.463-88.705-48.697-208.989-94.476-270.525v-1.427c48.697 47.206 171.769 150.306 257.686 227.599 137.402 124.563 187.526 217.613 196.085 267.672 2.853 20.036 1.427 38.906-8.559 48.697-10.051 8.559-20.101 5.706-18.61 9.986 1.427 2.918 9.986 4.344 14.265 4.344 41.564 0 61.601-32.94 58.683-70.16-7.133-58.683-68.669-149.139-227.534-279.149-113.151-93.050-224.746-186.099-317.73-274.869-8.624-8.559-22.954-21.463-40.073-21.463-14.33 0-14.33 12.969-5.771 24.381 48.697 65.816 78.719 207.497 111.66 289.135v1.427c-27.169-22.89-114.513-88.77-184.673-140.255-60.109-42.991-187.526-136.17-240.503-170.342-8.559-5.771-20.036-14.33-30.087-14.33-17.183 0-21.463 11.412-8.559 27.169 63.673 65.914 123.238 136.917 177.627 211.918l3.933 5.695c62.963 88.705 118.857 184.673 130.27 257.686 11.348 73.726-28.79 108.353-87.473 108.353-71.587 0-153.159-38.646-213.268-84.426zM1015.117 449.816c9.986 27.234 0 44.417-18.61 44.417-21.463 0-42.926-31.514-51.874-51.874-13.905-30.836-26.982-67.887-37.091-106.144l-1.166-5.191c27.364 25.937 90.132 71.327 108.742 118.857zM1015.57 252.758c0-14.325-11.612-25.937-25.937-25.937s-25.937 11.612-25.937 25.937c0 14.325 11.612 25.937 25.937 25.937v0c14.325 0 25.937-11.612 25.937-25.937v0zM6.484 85.722c2.399-13.876 3.696-15.173 7.003-15.433 1.795-0.060 3.906-0.094 6.025-0.094 8.344 0 16.565 0.529 24.631 1.555l-0.957-0.099 34.237 2.594c10.31 0.778 18.804 1.686 24.64 2.594 4.215 0.648 4.798 1.945 5.187 4.28s0.324 6.484 0.584 8.17 0.389 1.751 0.908 1.816c1.768-0.093 3.428-0.418 4.994-0.946l-0.131 0.038c0.584-12.58 0.908-18.999 1.491-24.705 0.519-6.484 1.621-14.719 1.816-15.173 0.005-0.053 0.008-0.115 0.008-0.177 0-0.809-0.511-1.499-1.227-1.764l-0.013-0.004c-1.238-0.53-2.673-0.879-4.178-0.971l-0.037-0.002c-1.167 11.023-2.27 14.395-6.938 14.655-2.788 0-8.819 0-28.012-1.167l-40.916-3.048c-22.501-1.686-24.186-1.945-24.965-7.327-0.071-1.259-0.112-2.732-0.112-4.215s0.041-2.956 0.121-4.418l-0.009 0.204c0.002-0.020 0.003-0.044 0.003-0.067 0-0.501-0.406-0.908-0.908-0.908-0.024 0-0.047 0.001-0.070 0.003h0.003c-0.965 0.005-1.878 0.219-2.699 0.6l0.040-0.017c-1.232 0.519-1.556 0.648-1.751 1.102-0.222 1.121-0.406 2.498-0.511 3.897l-0.007 0.123c0 1.88 0 7.133-0.908 15.238s-1.751 18.545-1.88 20.101 0 2.205 0.519 2.399zM52.912 141.033c0 7.003 0 12.32 0 16.211-0.519 9.337-1.232 10.116-11.283 12.32-0.438 1.185-0.692 2.554-0.692 3.981 0 0.356 0.016 0.709 0.047 1.057l-0.003-0.045c4.993-0.389 12.969-1.427 18.221-1.556s10.634 0.519 15.627 0.843c0.288-1.066 0.454-2.29 0.454-3.553 0-0.005 0-0.009 0-0.014v0.001c0-0.778-0.324-1.102-1.037-1.362-1.644-0.566-3.816-1.169-6.029-1.665l-0.455-0.086c-4.669-0.908-6.484-2.723-6.484-8.948-0.389-3.437-0.519-8.559-0.584-16.47-0.109-1.542-0.171-3.341-0.171-5.155s0.062-3.613 0.184-5.396l-0.013 0.241c0.127-0.654 0.506-1.202 1.029-1.551l0.009-0.006c5.33-1.111 11.454-1.748 17.727-1.748 1.177 0 2.349 0.022 3.515 0.067l-0.168-0.005c12.58 0 17.183-0.324 19.972 1.232s4.215 7.522 4.474 20.296c0 18.221-1.491 26.975-19.453 32.032-0.064 0.564-0.101 1.218-0.101 1.88s0.037 1.316 0.108 1.96l-0.007-0.079c0.324 0.454 0.519 0.454 1.362 0.454 8.73-0.693 16.817-2.537 24.411-5.389l-0.613 0.202c1.037-0.778 1.362-1.297 1.362-2.075s0-2.14-0.324-7.262-0.584-15.562-0.778-28.466 0.324-24.77 0.648-37.22c-0.77-0.126-1.657-0.197-2.561-0.197s-1.791 0.072-2.657 0.21l0.095-0.013c-0.389 0-0.713 0.519-0.713 0.648-1.232 7.198-2.464 7.846-5.058 8.041s-13.552 1.297-31.060 1.556l-29.698 0.454c-3.162 0.144-6.87 0.225-10.596 0.225-7.34 0-14.606-0.317-21.785-0.939l0.933 0.065c-0.007 0-0.015 0-0.023 0-1.139 0-2.082-0.839-2.245-1.933l-0.002-0.012c-0.713-1.556-1.297-4.539-2.334-8.235 0 0 0 0-0.713 0l-3.955 0.389c-0.713 0-0.843 0-0.843 0.778v5.447c0 4.798 0.519 10.699 0.843 20.166v15.108c0 9.532-0.584 20.879-0.648 28.661-0.007 0.11-0.011 0.239-0.011 0.369 0 1.228 0.341 2.377 0.935 3.355l-0.016-0.029c1.102 1.427 1.102 1.427 4.15 0.713 6.537-1.024 14.144-1.657 21.881-1.75l0.101-0.001c0-4.020-0.584-4.604-1.621-4.734-12.385-2.010-18.61-2.983-18.804-15.173v-10.699c-0.085-1.441-0.133-3.127-0.133-4.824 0-3.946 0.26-7.831 0.765-11.638l-0.048 0.447c0.648-2.075 2.399-2.399 6.484-2.464 11.996 0 24.057 0 36.053 0 1.556 0 2.788 0.908 2.788 2.010zM59.591 239.011c0.908 6.938 1.427 12.19 1.556 16.146 0.519 9.337 0 10.18-9.856 13.487-0.17 0.75-0.267 1.612-0.267 2.496s0.097 1.746 0.282 2.575l-0.015-0.079c4.928-0.908 12.644-2.853 17.897-3.566s10.699-0.713 15.692-0.908c0.077-0.545 0.12-1.175 0.12-1.816s-0.044-1.27-0.128-1.887l0.008 0.072c0-0.778-0.519-1.037-1.232-1.232-1.945-0.389-4.798-0.778-6.873-0.973-4.734 0-6.484-2.010-7.781-8.105-0.778-3.372-1.491-8.43-2.464-16.34-0.594-3.048-0.947-6.565-0.973-10.159v-0.021c0.008-0.672 0.306-1.273 0.775-1.684l0.003-0.002c6.105-2.072 13.19-3.525 20.527-4.068l0.287-0.017c12.45-1.621 17.054-2.205 19.972-1.037s5.058 7.003 6.484 19.453c2.334 18.026 1.556 26.91-15.887 34.043 0.112 1.366 0.341 2.625 0.682 3.837l-0.034-0.141c0.454 0.389 0.584 0.389 1.427 0 8.764-1.438 16.629-3.992 23.915-7.551l-0.506 0.223c0.908-0.908 1.232-1.427 1.102-2.205s0-2.14-1.102-7.198-2.334-15.368-4.020-28.207-2.464-24.64-3.566-37.025c-0.452-0.043-0.978-0.068-1.509-0.068-1.281 0-2.528 0.143-3.727 0.413l0.113-0.021c-0.324 0-0.648 0.584-0.584 0.713-0.454 7.262-1.556 8.041-4.085 8.559s-13.358 2.788-30.736 5.058l-29.698 3.826c-9.084 1.473-19.887 2.52-30.859 2.905l-0.46 0.013c-0.075 0.009-0.163 0.014-0.251 0.014-1.074 0-1.974-0.747-2.21-1.749l-0.003-0.015c-0.843-1.427-1.751-4.28-3.242-7.846 0 0 0 0-0.713 0l-3.891 0.778c-0.648 0-0.843 0-0.713 0.908l0.648 5.382c0.648 4.798 1.751 10.634 3.112 20.036l1.945 14.914c1.232 9.467 1.816 20.815 2.659 28.531 0.058 1.376 0.536 2.629 1.309 3.647l-0.012-0.016c1.232 1.232 1.232 1.232 4.215 0 6.238-1.713 13.71-3.107 21.36-3.903l0.621-0.052c-0.519-4.020-1.102-4.604-2.14-4.604-12.515-0.584-18.804-0.843-20.361-12.969l-1.362-10.634c-0.789-4.44-1.241-9.552-1.241-14.769 0-0.439 0.003-0.877 0.010-1.314l-0.001 0.066c0.454-2.075 2.075-2.594 6.030-3.112 11.931-1.556 23.862-2.918 35.793-4.344 1.556 0 2.853 0.584 2.983 1.686zM77.358 335.562c1.686 6.484 2.853 11.996 3.437 15.887 1.556 9.208 1.102 10.116-8.235 14.525-0.044 0.385-0.069 0.832-0.069 1.284 0 1.326 0.215 2.601 0.612 3.793l-0.024-0.085c4.734-1.491 12.19-4.344 17.378-5.576s10.505-2.010 15.433-2.723c0.005-0.134 0.008-0.29 0.008-0.448 0-1.131-0.145-2.228-0.417-3.274l0.020 0.090c0-0.778-0.584-0.973-1.297-1.102-2.010 0-4.863 0-7.003 0-4.669 0-6.484-1.232-8.624-7.133-1.167-3.242-2.399-8.235-4.344-15.887-0.885-2.918-1.634-6.431-2.103-10.031l-0.037-0.344c-0.005-0.058-0.008-0.125-0.008-0.193 0-0.631 0.25-1.203 0.657-1.623l-0.001 0.001c5.791-2.72 12.539-4.961 19.584-6.386l0.582-0.098c12.126-3.048 16.665-4.15 19.453-3.307s5.836 6.484 8.883 18.804c4.409 17.637 4.669 26.586-11.801 35.599 0.198 1.355 0.561 2.578 1.073 3.719l-0.035-0.088c0.454 0 0.648 0 1.427 0 8.402-2.706 15.703-6.249 22.388-10.651l-0.342 0.211c0.778-1.037 1.037-1.556 0.843-2.334s-0.519-2.075-1.945-7.068-3.826-14.655-6.679-27.234-5.317-24.122-7.781-36.377c-1.849 0.037-3.604 0.39-5.229 1.008l0.107-0.036s-0.519 0.584-0.519 0.778c0.389 7.262-0.584 8.17-3.048 8.948s-12.969 4.344-29.957 8.559l-29.050 7.198c-8.4 2.468-18.811 4.731-29.444 6.318l-1.357 0.166c-0.158 0.040-0.34 0.062-0.528 0.062-0.973 0-1.803-0.613-2.126-1.473l-0.005-0.016c-1.037-1.297-2.27-4.085-4.15-7.457 0 0 0 0-0.713 0l-3.761 1.297c-0.648 0-0.843 0-0.648 0.973l1.297 5.252c1.167 4.669 2.918 10.375 5.382 19.453l3.631 14.655c2.334 9.208 4.215 20.426 5.966 28.012 0.217 1.344 0.82 2.519 1.689 3.44l-0.003-0.003c1.362 1.102 1.362 1.102 4.215 0 5.743-2.334 12.757-4.56 19.969-6.276l1.040-0.209c-0.973-3.891-1.621-4.409-2.659-4.28-12.58 0.843-18.804 1.297-21.722-10.505l-2.594-10.375c-1.403-4.66-2.479-10.147-3.020-15.791l-0.028-0.355c0-2.14 1.751-2.853 5.576-3.826 11.737-2.918 23.408-5.641 35.145-8.43 1.491-0.324 2.853 0 3.112 1.362zM153.029 449.88c-14.006 1.491-38.193 4.409-74.894 7.587-11.931 0.973-12.969 1.037-17.119-5.706-0.519-0.778-0.778-0.843-1.362-0.519-0.871 0.864-1.624 1.844-2.235 2.916l-0.035 0.067c-0.202 0.344-0.321 0.758-0.321 1.2s0.119 0.855 0.328 1.211l-0.006-0.011c1.297 2.659 4.604 8.689 6.030 11.607 2.399 4.928 4.474 9.986 6.938 14.979 0.324 0.713 2.788 0 4.474-0.584 0.648 0 1.037-0.648 0.843-1.427-2.14-5.901-2.594-8.105-0.454-8.819 1.847-0.562 4.046-1.017 6.303-1.28l0.181-0.017c26.391-3.502 62.768-6.873 77.422-7.781 0.908 0 1.686 0.778 1.037 1.427-8.041 8.948-32.032 33.394-41.175 42.537-0.953 0.999-2.278 1.635-3.752 1.686h-0.009c-9.273 1.362-15.368 2.14-19.453 2.594s-5.058 0-8.3-6.484c-0.237-0.345-0.629-0.568-1.073-0.568-0.126 0-0.248 0.018-0.363 0.052l0.009-0.002c-3.048 2.010-3.696 3.372-3.242 4.344 1.621 3.372 4.344 8.105 6.873 12.969 3.372 7.003 4.928 11.283 5.901 13.358 0.973 0.778 5.447-0.584 5.382-1.556-2.659-7.846-2.659-8.948 2.14-9.726 19.064-3.177 58.359-7.781 81.183-9.921 0.713 0 0.843 0.648 0 1.491-10.764 11.283-46.622 48.697-58.359 57.451-2.853 1.945-4.28 1.037-5.252-0.584s-2.594-4.604-3.826-6.484c-0.324 0-0.713 0-1.427 0-2.788 1.751-3.696 2.529-3.177 3.631s5.252 9.597 6.873 12.969c2.205 4.474 4.085 9.208 4.669 10.31s1.427 2.27 2.464 1.945l3.566-1.232c0.248-0.115 0.416-0.362 0.416-0.648 0-0.069-0.010-0.136-0.028-0.2l0.001 0.005c-3.696-7.198-2.788-8.041 10.116-22.436 7.587-8.689 33.394-35.275 53.236-55.506 2.205-2.464 7.068-8.624 11.283-12.969 0.484-0.537 0.78-1.252 0.78-2.036 0-0.387-0.072-0.757-0.203-1.097l0.007 0.021c-0.843-1.621-2.27-1.816-4.734-1.491s-7.587 1.297-16.016 2.464c-9.791 1.491-35.21 4.993-56.024 7.003 10.764-11.607 22.76-24.705 38.517-41.046 3.955-4.020 9.208-10.051 13.358-14.136 0.46-0.37 0.758-0.927 0.778-1.553v-0.003c0.009-0.111 0.014-0.24 0.014-0.37 0-0.965-0.27-1.867-0.739-2.634l0.013 0.022c0-0.713-1.037-1.037-2.464-0.713-3.048 0.973-11.088 2.27-25.094 3.696zM180.588 595.647c5.966 9.143 25.224 17.832 44.936 4.928 9.056-5.379 15.362-14.576 16.712-25.314l0.017-0.169c0.044-0.692 0.070-1.5 0.070-2.314 0-7.102-1.928-13.753-5.29-19.458l0.098 0.179c-5.477-7.304-13.836-12.19-23.358-12.961l-0.115-0.007c-8.164 0.086-15.75 2.491-22.15 6.585l0.168-0.101c-6.010 4.13-10.734 9.728-13.711 16.288l-0.1 0.247c-1.579 3.722-2.497 8.051-2.497 12.594 0 0.52 0.012 1.036 0.036 1.55l-0.003-0.073c0.38 6.545 2.208 12.588 5.167 17.916l-0.109-0.214zM182.144 586.245c-0.959-1.596-1.527-3.522-1.527-5.58 0-1.156 0.179-2.27 0.511-3.316l-0.021 0.078c1.621-6.095 6.484-11.348 15.887-17.508 5.509-3.878 12.358-6.198 19.749-6.198 1.197 0 2.381 0.061 3.547 0.18l-0.147-0.012c6.010 0.231 11.27 3.249 14.552 7.791l0.038 0.055c1.138 1.7 1.817 3.793 1.817 6.043 0 0.729-0.071 1.442-0.207 2.132l0.011-0.070c-2.178 7.208-6.926 13.074-13.154 16.656l-0.139 0.073c-6.6 4.868-14.894 7.791-23.87 7.791-1.642 0-3.262-0.098-4.853-0.288l0.192 0.019c-5.068-0.948-9.355-3.75-12.217-7.661l-0.038-0.055zM304.373 643.696c-6.364-6.804-12.425-14.141-18.021-21.838l-0.459-0.663c-0.324-0.389-0.324-0.389-0.713 0-0.856 0.698-1.62 1.442-2.315 2.246l-0.020 0.023s-0.713 0.778-0.584 1.102c2.529 5.836 2.399 6.484 0.713 8.43-7.158 7.461-14.601 14.452-22.394 21.043l-0.431 0.355c-5.447 4.734-7.587 5.966-10.44 6.484-4.228-0.057-7.99-2.004-10.486-5.034l-0.019-0.024c-2.92-4.091-4.669-9.192-4.669-14.702 0-0.006 0-0.012 0-0.018v0.001c-0.007-0.097-0.011-0.21-0.011-0.324 0-1.292 0.525-2.461 1.373-3.307v0c2.334-2.27 10.051-9.208 16.081-14.46 14.395-12.58 15.108-12.969 20.296-8.17 0.843 0.713 1.167 0.584 1.556 0 0.997-0.954 1.93-1.948 2.806-2.99l0.047-0.057-8.624-10.116c-2.205-2.594-6.484-8.3-7.457-10.18-0.454 0-2.788 1.556-4.085 2.918 0.508 1.218 1.039 2.771 1.483 4.361l0.073 0.308c0.389 1.297 0 2.075-1.102 3.437-4.799 5.119-9.835 9.847-15.159 14.241l-0.274 0.219c-9.597 8.365-12.969 10.634-14.265 11.866s-2.723 1.297-5.317-0.584-2.464-1.556-3.048-1.427-2.723 1.102-2.723 1.556c0.389 10.375 0.843 16.405 1.232 18.74 0.021 1.076 0.435 2.052 1.106 2.792l-0.003-0.004c0.584 0.713 1.167 0.843 2.075 0l9.467-8.43c0.648 4.344 1.297 14.525 2.723 20.296 0.494 1.946 1.369 3.642 2.547 5.081l-0.018-0.023c3.64 3.786 8.747 6.137 14.404 6.137 2.174 0 4.268-0.348 6.227-0.99l-0.141 0.040c0.844 6.985 2.095 13.207 3.78 19.248l-0.214-0.897c0.889 3.224 2.386 6.023 4.373 8.4l-0.028-0.035c2.441 2.505 5.731 4.172 9.404 4.534l0.063 0.005c3.566 0 8.235 0 20.296-9.856 6.484-5.641 12.969-10.958 18.091-15.627s6.484-5.512 7.522-5.706c1.945-0.454 3.631 0.778 8.883 4.863 0 0.389 0.778 0.389 1.232 0s2.788-3.437 2.464-3.761l-6.938-7.976c-2.914-3.364-5.808-7.062-8.518-10.899l-0.3-0.448c-0.148-0.255-0.42-0.424-0.732-0.424-0.086 0-0.169 0.013-0.247 0.037l0.006-0.002c-1.068 0.593-1.98 1.194-2.842 1.855l0.054-0.040s-0.519 0.454 0 0.908c0.212 0.576 0.334 1.241 0.334 1.935 0 1.356-0.468 2.603-1.251 3.588l0.009-0.012c-5.208 5.664-10.648 10.878-16.399 15.733l-0.265 0.218c-10.894 9.532-15.887 11.607-19.453 11.996s-6.484-0.908-10.116-4.798c-2.807-3.716-4.694-8.274-5.241-13.236l-0.011-0.122c0-1.491 0-1.945 1.491-3.177 7.457-6.484 24.77-21.593 29.957-25.289 2.14-1.491 2.464-1.362 8.494 3.696 0.324 0.389 0.908 0 1.556 0zM316.563 750.363c3.189 2.486 7.252 3.986 11.666 3.986 0.871 0 1.728-0.058 2.568-0.171l-0.098 0.011c4.566-0.567 8.677-2.135 12.233-4.476l-0.107 0.066c0.843 1.167 2.529 3.761 3.307 3.566s0.908-0.389 1.232-0.973 1.88-4.539 1.102-5.706c-6.16-9.013-18.415-25.483-21.982-31.579-0.519-0.648 0-1.491 1.232-3.048 11.542-12.45 22.371-12.32 30.087-5.576 5.025 4.636 8.208 11.204 8.364 18.517v0.028c0 1.037 1.556 2.205 1.816 1.751 2.594-3.242 3.112-4.344 3.112-5.706-0.892-7.95-3.405-15.159-7.203-21.512l0.135 0.243c-1.027-1.712-2.277-3.169-3.734-4.387l-0.027-0.022c-4.491-3.825-10.36-6.152-16.772-6.152-1.566 0-3.099 0.139-4.589 0.405l0.157-0.023c-7.881 1.63-14.594 5.807-19.408 11.615l-0.045 0.056c-6.426 7.307-10.347 16.954-10.347 27.516 0 2.906 0.297 5.743 0.862 8.483l-0.047-0.27c0.867 5.079 3.179 9.511 6.493 12.978l-0.009-0.009zM334.525 740.442c-2.575 2.327-6.004 3.751-9.766 3.751-2.977 0-5.746-0.892-8.055-2.423l0.054 0.034c-0.96-1.009-1.599-2.331-1.748-3.798l-0.002-0.028c-0.018-0.356-0.029-0.774-0.029-1.193 0-6.986 2.892-13.296 7.544-17.799l0.007-0.006c4.020 6.484 8.494 12.061 12.515 18.091 0.302 0.389 0.483 0.885 0.483 1.422 0 0.734-0.339 1.388-0.868 1.816l-0.004 0.003zM383.935 723.194c2.918 4.344 3.761 6.484 1.427 10.44-4.384 7.75-8.673 14.295-13.332 20.547l0.364-0.51c-3.891 5.512-7.651 10.375-9.532 12.969-1.037 1.427-1.945 1.621-8.883-0.908-0.973 0.324-1.037 0-2.14 2.464 0 0.454 0 0.973 0.519 1.816 3.372 6.484 6.484 14.071 6.873 15.108 0.219 0.571 0.603 1.037 1.092 1.355l0.011 0.007c0.254 0.237 0.596 0.383 0.973 0.383s0.719-0.146 0.973-0.384l-0.001 0.001c1.816-2.334 3.826-4.928 5.512-7.327 0.454-0.648 1.037-1.167 1.491-0.778 2.179 5.642 4.359 10.297 6.808 14.784l-0.324-0.648c1.392 2.814 3.343 5.159 5.723 6.968l0.048 0.035c2.487 1.925 5.649 3.085 9.083 3.085 0.615 0 1.221-0.037 1.817-0.11l-0.072 0.007c6.72-1.177 12.399-4.923 16.094-10.167l0.052-0.078c2.334-2.788 4.669-6.16 8.948-12.19 7.133-10.31 11.477-16.276 13.812-19.453 0.843-1.232 1.102-1.297 1.427-1.037s4.604 3.826 6.484 5.317c0.389 0 1.037 0 1.621-0.973 0.623-1.051 1.232-2.288 1.749-3.573l0.067-0.188c0-0.908 0-1.037-0.519-1.427-11.348-7.911-14.784-11.153-19.453-14.525-0.713-0.519-1.362-0.973-1.88-0.519l-2.594 2.399c1.489 1.49 2.411 3.548 2.411 5.822 0 1.696-0.513 3.273-1.392 4.583l0.019-0.030c-4.261 7.665-8.553 14.192-13.267 20.38l0.299-0.408c-5.447 7.716-8.3 11.607-13.747 12.969-0.895 0.22-1.922 0.347-2.978 0.347-3.022 0-5.803-1.034-8.008-2.767l0.028 0.021c-3.513-3.031-6.275-6.834-8.035-11.152l-0.070-0.196c-0.085-0.35-0.134-0.751-0.134-1.164 0-1.206 0.417-2.315 1.115-3.191l-0.008 0.010c3.177-5.123 17.313-25.224 22.63-32.811 1.232-1.88 1.686-1.945 9.143 1.556 0.843 0.389 1.167 0 1.427-0.454l1.427-3.631-10.829-7.587c-5.123-3.566-8.689-7.133-11.283-8.883q-0.389 0-0.973 0.584zM448.843 884.652c0.817 0.345 1.766 0.546 2.763 0.546 3.064 0 5.685-1.898 6.752-4.582l0.017-0.049c0.851-1.282 1.359-2.857 1.359-4.55 0-3.055-1.65-5.724-4.108-7.165l-0.039-0.021c-0.859-0.387-1.862-0.612-2.918-0.612-3.040 0-5.644 1.868-6.726 4.519l-0.018 0.049c-0.792 1.279-1.261 2.83-1.261 4.491 0 3.068 1.602 5.761 4.014 7.29l0.035 0.021zM464.47 833.297c-0.519 0.713-1.621 0.713-8.754-1.297-0.648 0-0.908 0-0.908 1.102-0.389 3.242-0.389 3.631 0 4.15 4.474 4.669 8.17 9.402 12.969 14.784 0.181 0.209 0.395 0.382 0.636 0.513l0.012 0.006s0.454 0 0.908-1.102c4.669-10.764 14.784-32.746 18.804-40.721s5.317-10.634 6.484-12.385 2.075-2.788 3.372-1.945c4.215 2.464 5.317 2.983 5.706 3.242s1.751-0.324 1.816-0.843l1.556-4.215c0.389-0.973 0-1.102-0.648-1.491-4.020-2.010-8.041-3.631-12.515-5.836-4.647-2.487-8.462-4.809-12.147-7.307l0.476 0.304c-0.648-0.324-1.037-0.324-1.491 0-0.74 0.995-1.411 2.123-1.962 3.319l-0.049 0.118c0 0.584 0 0.908 0 1.102 4.669 3.112 5.576 4.15 4.28 8.819-3.111 9.408-6.38 17.256-10.148 24.811l0.487-1.078zM515.372 802.496c3.826 3.502 5.123 5.252 3.891 9.791-2.482 9.118-5.050 16.603-8.020 23.881l0.498-1.38c-2.399 6.484-4.928 11.866-6.484 14.719-0.584 1.621-1.427 2.010-8.819 1.232-0.843 0.519-1.037 0-1.427 2.918 0 0.454 0 0.973 0.843 1.621 3.486 3.887 6.87 8.115 10.011 12.526l0.299 0.442c0.354 0.477 0.841 0.839 1.406 1.031l0.021 0.006c0.197 0.117 0.434 0.186 0.688 0.186 0.511 0 0.956-0.282 1.189-0.698l0.004-0.007c1.232-2.659 2.529-5.641 3.566-8.365 0-0.843 0.713-1.427 1.297-1.167 3.305 4.504 6.579 8.457 10.064 12.211l-0.078-0.085c1.971 2.341 4.447 4.193 7.265 5.399l0.127 0.048c1.657 0.706 3.585 1.116 5.609 1.116s3.952-0.41 5.705-1.152l-0.096 0.036c5.741-2.707 10.17-7.409 12.457-13.192l0.058-0.166c1.621-3.242 3.112-7.133 5.771-14.006 4.539-11.672 7.327-18.545 8.754-22.241 0.519-1.427 0.713-1.556 1.167-1.362s5.317 2.594 7.457 3.631c0.454 0 0.973-0.389 1.362-1.297 0.344-1.116 0.66-2.495 0.884-3.904l0.024-0.181c0-0.908 0-1.037-0.843-1.297-12.969-4.993-17.054-7.262-22.565-9.402-0.843-0.324-1.556-0.648-2.010 0l-1.945 2.918c2.438 1.46 4.045 4.087 4.045 7.089 0 0.992-0.175 1.943-0.497 2.824l0.018-0.057c-2.397 8.882-5.031 16.343-8.144 23.549l0.428-1.113c-3.372 8.819-5.252 12.969-10.18 15.951-1.635 0.832-3.565 1.32-5.609 1.32s-3.974-0.488-5.681-1.353l0.072 0.033c-4.173-1.994-7.665-4.801-10.394-8.24l-0.046-0.060c-0.338-0.651-0.537-1.421-0.537-2.237s0.199-1.586 0.55-2.265l-0.013 0.027c1.88-5.706 10.699-28.661 14.071-37.285 0.778-2.075 1.232-2.27 9.273-0.648 0.908 0 1.167 0 1.297-0.778l0.454-3.891-12.32-4.734c-5.771-2.27-10.116-4.863-12.969-5.966 0 0-0.584 0-0.778 0.778zM650.44 901.641c6.873 1.232 12.061 2.334 15.822 3.372 9.078 2.334 9.726 3.177 9.921 13.487 1.382 0.805 3.008 1.358 4.743 1.551l0.056 0.005c0.584-4.928 1.037-12.969 2.010-18.156s2.464-10.375 3.826-15.173c-0.993-0.514-2.144-0.918-3.355-1.154l-0.082-0.013c-0.713 0-1.102 0-1.556 0.778-0.973 1.751-2.205 4.344-3.048 6.484-1.751 4.409-3.826 5.576-10.051 4.993-3.437 0-8.494-1.167-16.34-2.594-3.769-0.464-7.169-1.237-10.432-2.314l0.381 0.109c-0.59-0.214-1.054-0.657-1.291-1.218l-0.005-0.014c-0.008-0.436-0.013-0.951-0.013-1.467 0-6.959 0.856-13.719 2.468-20.179l-0.121 0.572c2.205-12.32 3.048-16.924 5.058-19.453s8.235-2.723 20.815-0.454c17.961 3.242 25.937 6.484 27.688 25.418 1.097 0.291 2.365 0.478 3.67 0.518l0.026 0.001c0.519 0 0.584-0.454 0.713-1.297 0.39-3.106 0.613-6.699 0.613-10.345 0-4.956-0.412-9.816-1.202-14.548l0.071 0.512c-0.584-1.102-0.973-1.556-1.751-1.686l-7.198-1.167c-4.669-0.648-15.368-2.399-28.077-4.669s-24.251-5.058-36.442-7.781c-0.613 1.459-1.049 3.151-1.226 4.919l-0.006 0.074c-0.004 0.027-0.006 0.058-0.006 0.090 0 0.327 0.22 0.602 0.519 0.687l0.005 0.001c6.484 2.659 7.198 3.955 6.873 6.484s-1.297 13.552-4.409 30.8l-5.317 29.309c-1.841 12.134-4.101 22.543-6.939 32.71l0.455-1.91c-0.28 0.959-1.151 1.648-2.183 1.648-0.122 0-0.242-0.010-0.359-0.028l0.013 0.002c-1.621 0.389-4.669 0.389-8.494 0.713 0 0 0 0 0 0.648l-0.454 3.955c0 0.713 0 0.843 0.648 0.973l5.382 0.973c4.734 0.908 10.569 1.556 19.972 3.112l14.59 2.594c9.337 1.88 20.426 4.734 27.947 6.484 0.572 0.183 1.23 0.289 1.913 0.289s1.341-0.106 1.959-0.301l-0.046 0.013c1.556-0.778 1.556-0.778 1.491-3.891 0.383-8.076 1.31-15.65 2.755-23.038l-0.162 0.992c-3.955-0.713-4.669 0-4.993 0.648-4.344 11.801-6.484 17.702-18.48 15.562l-10.569-1.945c-5.909-0.833-11.184-2.102-16.254-3.815l0.627 0.184c-1.88-1.037-1.88-2.788-1.167-6.484 2.14-11.866 4.409-23.668 6.484-35.469 0-1.491 1.427-2.529 2.464-2.334zM715.866 855.408c4.734 2.075 6.484 3.372 6.484 8.041 0.223 3.547 0.351 7.692 0.351 11.866s-0.127 8.319-0.378 12.431l0.028-0.564c0 6.484-0.843 12.969-1.167 15.951 0 1.686-0.713 2.399-7.911 3.955-0.713 0.843-0.973 0.454-0.454 3.242 0 0.519 0.389 0.908 1.362 1.297 6.484 3.891 12.969 8.3 13.941 8.948 0.461 0.371 1.042 0.609 1.677 0.648h0.008c0.778 0 1.556-0.454 1.556-1.167 0-2.918 0.584-6.484 0.713-9.078 0-0.843 0-1.556 0.843-1.491 3.787 2.709 8.154 5.438 12.686 7.901l0.672 0.334c2.469 1.512 5.405 2.513 8.55 2.783l0.074 0.005c0.405 0.040 0.875 0.062 1.35 0.062 3.565 0 6.832-1.273 9.372-3.389l-0.024 0.019c4.408-4.272 7.247-10.139 7.584-16.669l0.003-0.061c0.454-3.566 0.584-7.716 0.908-15.108 0.519-12.515 0.973-19.907 1.167-23.862 0-1.491 0-1.686 0.648-1.686s5.901 0.778 8.235 1.037c0.454 0 0.843-0.648 0.843-1.686-0.041-1.494-0.204-2.923-0.481-4.312l0.027 0.162c0-0.843-0.584-0.843-1.167-0.908-13.876-0.584-18.48-1.427-24.381-1.686-0.973 0-1.751 0-1.945 0.584l-0.908 3.437c4.474 1.88 6.095 3.307 6.484 8.17 0.256 3.55 0.402 7.691 0.402 11.866s-0.146 8.317-0.433 12.419l0.031-0.553c-0.389 9.467-0.778 14.201-4.539 18.351-2.3 2.446-5.558 3.969-9.17 3.969-0.493 0-0.979-0.028-1.457-0.084l0.058 0.005c-4.924-0.721-9.317-2.559-13.057-5.248l0.088 0.060c-0.981-0.893-1.595-2.176-1.595-3.601 0-0.216 0.014-0.429 0.041-0.638l-0.003 0.025c0-5.966 0.973-30.541 1.362-39.814 0-2.205 0.389-2.594 8.559-3.566 0.908 0 1.102-0.519 0.973-1.167l-0.778-3.826-12.969-0.584c-6.484 0-11.153-1.297-14.265-1.427 0 0-0.454 0.324-0.519 0.973zM829.082 921.678c4.297-0.671 8.131-2.248 11.439-4.534l-0.092 0.060c0.635-0.529 1.459-0.85 2.359-0.85 0.083 0 0.165 0.003 0.246 0.008l-0.011-0.001c2.659 0 11.801 1.167 15.044 0.908 1.323-0.325 2.395-1.205 2.971-2.373l0.012-0.026c0-0.519 0-4.669 0-5.382s-0.908-2.010-2.788-2.010-6.484 0-12.969 0.973c1.981-4.073 3.139-8.86 3.139-13.918 0-0.464-0.010-0.926-0.029-1.386l0.002 0.066c-1.409-12.561-10.097-22.774-21.696-26.396l-0.221-0.059c-5.083-1.75-9.366-3.633-13.464-5.818l0.496 0.241c-0.818-0.423-1.402-1.2-1.554-2.123l-0.002-0.017c0-3.112 3.372-4.928 7.587-5.187 1.816 0 11.672-0.519 12.969-0.648 0.047 0 0.102 0 0.157 0 6.591 0 12.608-2.459 17.184-6.509l-0.027 0.024c2.276-2.713 3.659-6.243 3.659-10.096 0-0.785-0.057-1.556-0.168-2.31l0.010 0.086c-0.396-5.396-2.806-10.162-6.473-13.607l-0.011-0.010c-5.175-6.355-12.017-11.166-19.861-13.788l-0.305-0.088c-3.849-0.988-8.269-1.555-12.82-1.555-0.919 0-1.832 0.023-2.74 0.069l0.127-0.005c-16.859 1.297-22.89 10.699-22.371 17.508 0.063 5.355 2.745 10.072 6.822 12.935l0.051 0.034c4.085 2.788 7.327 4.928 12.255 8.041-6.484 3.761-9.986 6.484-9.597 11.348-0.006 0.090-0.009 0.195-0.009 0.301 0 1.245 0.444 2.386 1.183 3.274l-0.007-0.008c4.384 2.699 9.501 5.307 14.828 7.512l0.734 0.269c-4.798 1.653-8.858 4.398-12.037 7.949l-0.024 0.027c-3.496 4.427-5.607 10.088-5.607 16.241 0 0.788 0.035 1.568 0.102 2.339l-0.007-0.1c0.715 9.604 5.95 17.85 13.562 22.689l0.119 0.071c4.923 3.607 11.101 5.772 17.784 5.772 0.085 0 0.171 0 0.256-0.001h-0.013zM818.059 814.103c1.16-0.18 2.498-0.282 3.861-0.282 6.059 0 11.644 2.032 16.11 5.452l-0.064-0.047c3.45 2.223 5.859 5.806 6.475 9.973l0.009 0.078c0.077 0.433 0.121 0.931 0.121 1.44 0 2.505-1.068 4.761-2.774 6.336l-0.006 0.005c-3.502 2.896-8.022 4.673-12.955 4.733h-0.013c-1.777 0.134-3.849 0.21-5.939 0.21-3.529 0-7.006-0.218-10.421-0.641l0.408 0.041c-2.57-0.605-4.777-1.905-6.479-3.691l-0.005-0.005c-3.358-2.445-5.721-6.081-6.47-10.277l-0.015-0.098c0-3.048 2.594-12.061 18.091-12.969zM837.512 887.959c0.087 0.975 0.136 2.109 0.136 3.255 0 5.155-1.003 10.076-2.823 14.578l0.093-0.261c-2.28 5.182-7.138 8.851-12.906 9.397l-0.063 0.005c-0.148 0.007-0.322 0.011-0.496 0.011-2.999 0-5.713-1.219-7.674-3.188v0c-3.044-3.020-4.928-7.205-4.928-11.831 0-0.013 0-0.025 0-0.038v0.002c-0.062-0.72-0.098-1.558-0.098-2.404 0-6.555 2.128-12.613 5.732-17.521l-0.058 0.083c2.534-3.634 6.429-6.167 10.932-6.862l0.091-0.012c5.771-0.389 11.477 3.112 12.32 14.59zM878.881 900.28c0 0.908-0.843 1.556-7.846 4.085-0.584 0-0.713 0.584 0 1.362 1.556 2.918 1.751 3.242 2.529 3.242 6.484 1.297 12.126 2.983 19.453 4.474h0.778c0.324 0 0-0.389 0-1.362-2.464-11.477-7.003-35.275-8.43-44.093s-1.816-11.737-2.010-13.747 0-3.502 1.621-3.566c4.863-0.454 6.095-0.648 6.484-0.713s1.232-1.232 0.973-1.686l-1.167-4.344c-0.324-1.037-0.584-0.973-1.362-0.843-4.474 0.713-8.754 1.751-13.617 2.529-3.964 0.585-8.65 0.982-13.405 1.099l-0.147 0.003c-0.778 0-1.037 0-1.102 1.037-0.080 0.594-0.126 1.28-0.126 1.978s0.046 1.384 0.135 2.057l-0.009-0.079c0 0.008-0.001 0.018-0.001 0.027 0 0.394 0.319 0.713 0.713 0.713 0.069 0 0.137-0.010 0.2-0.028l-0.005 0.001c5.641 0 6.938 0 8.624 4.734 2.052 7.006 3.824 15.505 4.962 24.203l0.095 0.892zM896.13 951.181c3.144-0.871 5.415-3.707 5.415-7.073 0-0.643-0.083-1.267-0.238-1.861l0.011 0.051c-0.022-4.567-3.73-8.26-8.3-8.26-0.228 0-0.454 0.009-0.678 0.027l0.029-0.002c-3.324 0.711-5.78 3.623-5.78 7.11 0 0.607 0.074 1.196 0.214 1.759l-0.011-0.050c0.374 4.488 4.108 7.989 8.661 7.989 0.17 0 0.338-0.005 0.505-0.014l-0.023 0.001zM902.225 845.617c5.123 0.648 7.198 1.362 8.819 5.706 2.293 5.957 4.651 13.555 6.573 21.325l0.3 1.435c1.686 6.484 2.918 12.58 3.502 15.562 0.454 1.686 0 2.529-6.484 6.095-0.389 0.973-0.778 0.713 0.519 3.242 0 0.519 0.648 0.713 1.621 0.843 7.392 1.816 15.044 4.15 15.951 4.604 0.271 0.094 0.583 0.148 0.908 0.148s0.637-0.054 0.928-0.154l-0.020 0.006c0.713 0 1.362-0.908 1.167-1.556-0.519-2.918-1.167-6.095-1.88-8.948 0-0.778 0-1.491 0.324-1.686 4.012 1.43 9.095 2.861 14.291 3.989l0.882 0.161c1.364 0.324 2.93 0.509 4.539 0.509s3.175-0.186 4.678-0.536l-0.138 0.027c3.927-0.866 7.192-3.219 9.237-6.425l0.035-0.059c2.025-3.483 3.219-7.665 3.219-12.126 0-2.142-0.276-4.22-0.793-6.2l0.038 0.17c-0.584-3.566-1.621-7.587-3.437-14.719-3.048-12.19-4.734-19.453-5.706-23.214-0.389-1.491 0-1.686 0-1.816s5.836-0.973 8.17-1.362c0.454 0 0.584-0.843 0.324-1.88-0.529-1.519-1.076-2.783-1.702-3.999l0.081 0.173c-0.519-0.778-0.843-0.648-1.427-0.519-13.422 3.437-18.091 3.891-23.862 5.317-0.908 0-1.621 0.454-1.621 1.167v3.502c4.798 0.584 6.809 1.491 8.624 5.966 2.305 6.142 4.538 13.759 6.263 21.567l0.221 1.193c2.334 9.143 3.372 13.876 0.908 18.934-1.877 3.35-5.108 5.75-8.933 6.472l-0.081 0.013c-1.256 0.187-2.706 0.293-4.181 0.293-3.447 0-6.758-0.582-9.841-1.654l0.21 0.064c-1.39-0.691-2.388-1.989-2.654-3.537l-0.004-0.029c-1.816-5.771-7.846-29.568-10.116-38.906-0.584-2.14-0.324-2.594 7.133-5.901 0.908-0.389 0.973-0.778 0.648-1.362l-1.88-3.437-12.969 3.242c-6.030 1.491-11.088 1.88-14.136 2.659 0 0 0 0.454 0 1.102zM1029.317 875.25c4.545-2.022 8.076-5.637 9.939-10.119l0.046-0.126c1.261-3.096 1.992-6.687 1.992-10.45 0-0.887-0.041-1.764-0.12-2.63l0.008 0.111c1.427 0 4.539-0.324 4.734-1.167s0-0.973 0-1.556-3.048-3.826-4.474-3.631c-10.894 1.102-31.189 4.020-38.257 4.215-0.778 0-1.362-0.584-2.075-2.529-5.447-16.081 0-25.613 9.467-29.114 2.493-0.877 5.368-1.384 8.36-1.384 4.335 0 8.422 1.064 12.013 2.944l-0.143-0.068c1.037 0.324 2.788 0 2.464-0.713-1.621-3.826-2.334-4.863-3.566-5.512-6.023-2.517-13.022-3.98-20.362-3.98-0.57 0-1.137 0.009-1.703 0.026l0.083-0.002c-2.075 0.081-4.025 0.526-5.817 1.273l0.111-0.041c-7.175 2.811-12.689 8.516-15.183 15.64l-0.055 0.182c-0.938 2.989-1.478 6.426-1.478 9.99 0 4.599 0.9 8.989 2.534 13.001l-0.083-0.231c4.562 12.176 14.312 21.48 26.485 25.338l0.295 0.081c2.409 0.849 5.187 1.34 8.080 1.34 2.434 0 4.786-0.347 7.011-0.995l-0.177 0.044zM1029.317 854.76c0.243 1.001 0.382 2.151 0.382 3.333 0 5.56-3.083 10.401-7.633 12.905l-0.076 0.038c-0.628 0.223-1.353 0.352-2.107 0.352s-1.479-0.129-2.153-0.366l0.045 0.014c-6.304-3.174-11.002-8.761-12.926-15.516l-0.043-0.176c7.457-0.584 14.59-1.751 21.852-2.399 0.093-0.013 0.201-0.020 0.31-0.020 1.184 0 2.173 0.835 2.41 1.949l0.003 0.016zM1092.215 848.211c4.367-2.449 7.607-6.471 8.981-11.28l0.032-0.133c0.763-2.427 1.203-5.218 1.203-8.112 0-1.716-0.155-3.396-0.451-5.027l0.026 0.171c1.362 0 4.409-0.778 4.539-1.621s0-0.973-0.389-1.556-3.372-3.502-4.798-3.177c-10.699 2.010-30.671 6.484-37.674 7.651-0.778 0-1.427-0.519-2.334-2.334-6.873-15.562-2.464-25.483 6.484-29.893 3.111-1.399 6.744-2.214 10.567-2.214 3.528 0 6.894 0.694 9.969 1.953l-0.176-0.064c0.973 0 2.659-0.519 2.334-0.908-1.945-3.696-2.723-4.604-4.020-5.187-4.681-1.5-10.065-2.365-15.652-2.365-2.346 0-4.656 0.152-6.921 0.448l0.267-0.028c-2.081 0.306-3.958 0.897-5.692 1.737l0.116-0.051c-6.809 3.437-11.82 9.594-13.645 17.005l-0.037 0.178c-0.473 2.128-0.744 4.571-0.744 7.078 0 5.653 1.378 10.984 3.816 15.676l-0.089-0.189c5.641 11.58 16.104 20.062 28.703 22.901l0.282 0.053c1.754 0.433 3.768 0.682 5.84 0.682 3.238 0 6.335-0.607 9.182-1.714l-0.173 0.059zM1090.27 827.85c0.483 1.391 0.761 2.994 0.761 4.662 0 5.067-2.571 9.533-6.48 12.164l-0.052 0.033c-0.629 0.212-1.354 0.334-2.107 0.334s-1.478-0.122-2.155-0.348l0.048 0.014c-6.676-2.569-11.862-7.734-14.402-14.226l-0.058-0.169c7.327-1.232 14.395-3.048 21.528-4.344 1.102 0 2.075 0 2.853 1.686zM1096.559 775.198c3.826-0.648 4.669-0.713 6.030 1.037s3.631 5.641 11.153 18.61l7.781 13.358c2.075 3.566 2.334 4.604-2.010 9.273-0.245 0.5-0.389 1.088-0.389 1.71 0 0.925 0.317 1.775 0.849 2.449l-0.006-0.008c7.262 0.713 14.655 0.778 20.685 1.491 0.705-0.022 1.37-0.163 1.986-0.403l-0.041 0.014c0.519 0 0.584-1.686-0.454-2.918-2.399-3.761-4.734-6.938-7.198-11.477 3.502 0 15.951 2.399 18.48 2.723 0.766 0.251 1.647 0.395 2.561 0.395s1.796-0.145 2.621-0.412l-0.060 0.017c2.462-1.733 4.050-4.563 4.050-7.764 0-1.268-0.249-2.477-0.701-3.582l0.023 0.063c-2.474-2.469-5.586-4.298-9.067-5.221l-0.141-0.032c-0.436-0.142-0.938-0.224-1.459-0.224s-1.023 0.082-1.493 0.234l0.034-0.010c-0.703 0.411-1.168 1.162-1.168 2.022 0 0.019 0 0.037 0.001 0.056v-0.003c0.003 0.076 0.004 0.166 0.004 0.256 0 2.539-1.216 4.794-3.097 6.214l-0.020 0.014c-1.788 0.636-3.85 1.004-5.998 1.004s-4.21-0.368-6.127-1.044l0.129 0.040c-1.427-0.389-2.853-2.14-6.873-9.143l-10.829-18.545c-1.335-1.858-2.418-4.012-3.135-6.326l-0.042-0.158c0-0.973 0-1.686 1.816-2.399l7.457-3.955c0.252-0.247 0.409-0.592 0.409-0.973s-0.156-0.725-0.408-0.972v0l-3.502-4.15-17.767 10.31c-3.502 2.075-7.003 3.696-7.976 4.28s-0.519 0.908 0.389 1.556zM1175.343 784.924c0.389 0.778 0 1.751-5.447 6.938-0.389 0.454 0 0.843 0.519 1.297 2.659 1.945 2.983 2.205 3.696 1.88 6.484-1.556 12.255-2.399 19.453-4.085 0.107 0.030 0.23 0.048 0.357 0.048s0.25-0.017 0.366-0.050l-0.010 0.002s0-0.519-0.519-1.362c-7.003-9.337-21.139-29.050-25.937-36.442s-6.484-9.856-7.587-11.672-1.427-3.177 0-3.891c4.15-2.399 5.187-3.112 5.576-3.372s0.648-1.621 0-1.945l-2.853-3.502c-0.713-0.778-0.973-0.584-1.621 0-3.761 2.529-7.198 5.187-11.348 7.976-3.295 2.141-7.163 4.302-11.172 6.214l-0.629 0.27c-0.648 0.454-0.778 0.778-0.519 1.427 0.546 1.312 1.198 2.444 1.975 3.477l-0.029-0.041c0.116 0.185 0.32 0.307 0.551 0.307s0.435-0.121 0.55-0.304l0.002-0.003c5.058-2.529 6.484-2.788 9.791 0.713 5.224 6.101 10.222 12.831 14.74 19.896l0.433 0.724zM1212.304 823.83c1.709-1.341 2.796-3.407 2.796-5.727 0-1.744-0.615-3.344-1.639-4.596l0.010 0.013c-1.426-2.693-4.211-4.497-7.417-4.497-1.543 0-2.988 0.418-4.229 1.146l0.039-0.021c-1.774 1.339-2.909 3.443-2.909 5.813 0 1.734 0.608 3.327 1.622 4.576l-0.011-0.013c1.487 2.658 4.284 4.425 7.494 4.425 1.508 0 2.925-0.39 4.156-1.075l-0.044 0.022zM1173.658 725.528c4.928-1.491 7.133-1.751 10.375 1.621 5.379 5.49 10.474 11.324 15.223 17.442l0.34 0.455c4.15 5.252 7.781 10.31 9.532 12.969 1.102 1.362 1.037 2.27-3.372 8.235 0 1.037-0.454 0.973 1.751 2.723 0 0.454 0.908 0.389 1.88 0 7.457-1.297 15.368-2.334 16.405-2.27 0.645-0.030 1.229-0.27 1.691-0.652l-0.005 0.004c0.389-0.273 0.64-0.719 0.64-1.224 0-0.265-0.069-0.513-0.19-0.728l0.004 0.008c-1.686-2.399-3.631-4.993-5.447-7.327-0.519-0.648-0.778-1.297-0.324-1.686 5.897-0.552 11.202-1.422 16.38-2.624l-0.818 0.16c3.162-0.541 5.967-1.773 8.353-3.539l-0.053 0.037c3.082-2.251 5.253-5.589 5.952-9.441l0.014-0.091c0.056-0.628 0.088-1.359 0.088-2.097 0-5.863-2.011-11.257-5.381-15.529l0.040 0.053c-2.010-3.048-4.539-6.484-9.143-12.061-7.781-9.791-12.255-15.692-14.719-18.804-0.973-1.232-0.973-1.427-0.584-1.751s4.928-3.242 6.873-4.539c0.389 0 0-1.037-0.454-1.88-0.938-0.992-1.933-1.904-2.989-2.744l-0.058-0.045c-0.778-0.519-1.037 0-1.491 0-10.894 8.624-14.979 10.958-19.453 14.655-0.713 0.584-1.362 1.037-1.037 1.686l1.556 3.177c1.134-0.619 2.483-0.983 3.918-0.983 2.53 0 4.795 1.132 6.318 2.917l0.010 0.012c5.44 5.48 10.519 11.34 15.185 17.529l0.312 0.433c5.836 7.457 8.689 11.283 8.559 16.859-0.234 4.072-2.313 7.614-5.408 9.829l-0.039 0.027c-3.683 2.414-8.1 4.020-12.855 4.466l-0.114 0.009c-1.611-0.070-3.016-0.893-3.88-2.124l-0.011-0.016c-3.955-4.539-19.453-23.733-25.029-30.995-1.362-1.816-1.362-2.27 4.15-8.365 0.584-0.713 0.519-1.037 0-1.491l-3.112-2.399-10.764 8.17c-4.863 3.826-9.273 6.484-11.737 8.235 0 0 0 0.519 0 1.102zM1301.917 703.287c2.654-2.967 4.685-6.55 5.852-10.505l0.049-0.194c0.181-0.956 0.697-1.768 1.418-2.328l0.009-0.006c1.88-1.816 9.791-6.484 12.19-8.883 0.53-0.682 0.85-1.551 0.85-2.494 0-0.453-0.074-0.888-0.21-1.296l0.008 0.029c-1.050-1.582-2.117-2.957-3.273-4.25l0.031 0.035c-0.713-0.778-1.945-0.973-3.437 0s-4.734 4.28-9.532 9.143c-1.426-5.307-3.962-9.902-7.357-13.715l0.029 0.034c-5.65-5.466-13.359-8.834-21.854-8.834-4.302 0-8.402 0.864-12.136 2.427l0.207-0.077c-3.801 1.557-8.374 2.985-13.089 4.039l-0.593 0.111c-0.185 0.039-0.397 0.061-0.615 0.061-0.754 0-1.445-0.268-1.984-0.714l0.005 0.004c-2.14-2.205-0.519-5.966 2.529-8.819l9.662-8.3c4.76-3.982 8.089-9.537 9.185-15.858l0.023-0.159c0-0.015 0-0.033 0-0.050 0-4.629-1.996-8.792-5.174-11.674l-0.013-0.012c-3.496-3.725-8.342-6.146-13.753-6.481l-0.059-0.003c-2.529-0.52-5.436-0.817-8.412-0.817-5.748 0-11.236 1.11-16.263 3.126l0.294-0.104c-4.968 2.398-9.239 5.323-13.006 8.788l0.038-0.034c-12.255 11.737-10.894 22.825-6.095 27.753 2.978 3.455 7.361 5.629 12.251 5.629 0.458 0 0.912-0.019 1.36-0.056l-0.059 0.004c4.928-0.454 8.819-0.908 14.59-1.621-2.529 6.938-3.696 11.153 0 14.849 0.76 1.021 1.867 1.747 3.144 2.005l0.033 0.006c6.524-1.035 12.229-2.412 17.756-4.186l-0.832 0.231c-2.439 3.94-3.958 8.68-4.148 13.759l-0.002 0.052c0.139 6.944 2.985 13.197 7.523 17.769l-0.002-0.002c5.392 5.555 12.929 9.001 21.271 9.001 1.348 0 2.675-0.090 3.975-0.264l-0.152 0.017c6.746-0.49 12.807-3.079 17.621-7.107l-0.048 0.039zM1224.689 627.55c4.646-5.115 11.212-8.414 18.551-8.752l0.059-0.002c0.4-0.039 0.864-0.061 1.333-0.061 3.791 0 7.243 1.453 9.83 3.832l-0.010-0.009c1.845 1.568 3.008 3.891 3.008 6.485 0 0.435-0.033 0.862-0.096 1.279l0.006-0.047c-0.951 4.851-3.487 8.995-7.036 11.97l-0.032 0.026c-3.732 3.577-7.823 6.843-12.192 9.721l-0.323 0.2c-1.624 0.752-3.524 1.191-5.528 1.191-0.543 0-1.078-0.032-1.604-0.095l0.064 0.006c-0.264 0.015-0.572 0.024-0.883 0.024-4.076 0-7.806-1.481-10.682-3.933l0.023 0.019c-2.205-2.27-5.771-10.958 5.447-21.722zM1286.873 671.968c4.108 4.142 7.27 9.229 9.131 14.905l0.076 0.269c0.386 1.305 0.608 2.803 0.608 4.354 0 4.439-1.821 8.453-4.756 11.335l-0.002 0.002c-1.953 1.753-4.548 2.825-7.394 2.825-0.319 0-0.635-0.013-0.947-0.040l0.041 0.003c-4.613-0.436-8.63-2.679-11.39-6.003l-0.022-0.028c-4.808-4.877-7.917-11.44-8.361-18.722l-0.004-0.082c-0.039-0.425-0.061-0.919-0.061-1.418 0-4.193 1.573-8.018 4.161-10.918l-0.014 0.016c4.15-4.020 10.829-4.928 18.804 3.372z" />
<glyph unicode="&#xe930;" glyph-name="app-logo" d="M929.025 960h-834.051c-52.236 0-94.975-42.739-94.975-94.975v-515.454c0-227.464 186.107-413.572 413.572-413.572h196.857c227.464 0 413.572 186.107 413.572 413.572v515.454c0 52.236-42.739 94.975-94.975 94.975zM828.007 387.251c0-140.424-114.833-255.257-255.257-255.257h-121.499c-140.424 0-255.257 114.833-255.257 255.257v318.139c0.098 32.334 26.283 58.519 58.607 58.617h514.789c32.334-0.098 58.519-26.283 58.617-58.607v-0.009z" />
</font>
</defs>
</svg>
