<svg xmlns="http://www.w3.org/2000/svg" xmlns:xlink="http://www.w3.org/1999/xlink" viewBox="0 0 8820.4 1880.32"><defs><style>.cls-1{fill:url(#Degradado_sin_nombre_6);}.cls-2{fill:url(#Degradado_sin_nombre_17);}</style><radialGradient id="Degradado_sin_nombre_6" cx="935.16" cy="2089.67" r="2317.11" gradientUnits="userSpaceOnUse"><stop offset="0" stop-color="#61116a"/><stop offset="1" stop-color="#98002e"/></radialGradient><linearGradient id="Degradado_sin_nombre_17" x1="5555.66" y1="1789.97" x2="5555.66" y2="127.75" xlink:href="#Degradado_sin_nombre_6"/></defs><title>Recurso 10icon</title><g id="Capa_2" data-name="Capa 2"><g id="Horizontal"><path id="Ícono" class="cls-1" d="M1880.08,927.57c0-1.3-.1-2.58-.16-3.88-.08-1.64-.17-3.25-.28-4.89-.08-1.41-.18-2.82-.29-4.23-.21-2.81-.46-5.61-.75-8.42a331.83,331.83,0,0,0-7.75-45.1c-.65-2.68-1.33-5.33-2.06-8s-1.46-5.28-2.23-7.89c-.37-1.3-.78-2.6-1.19-3.92-.81-2.6-1.65-5.18-2.52-7.77s-1.76-5.12-2.72-7.67c-.46-1.29-.93-2.56-1.42-3.82q-2.14-5.67-4.52-11.29c-1.59-3.73-3.22-7.42-4.93-11.08a333.65,333.65,0,0,0-52.53-80q-6.66-7.51-13.82-14.68-4.74-4.72-9.61-9.23c-.7-.65-1.39-1.28-2.09-1.91q-4.45-4.07-9.07-8c-2-1.66-4-3.28-6-4.9a332.63,332.63,0,0,0-53.47-35.18l-3.57-1.85q-7.19-3.71-14.59-7c-1.77-.81-3.56-1.61-5.37-2.37s-3.81-1.63-5.74-2.42c-2.5-1-5-2-7.55-3-1.26-.49-2.53-1-3.8-1.42s-2.55-.92-3.84-1.38-2.57-.91-3.85-1.34l-3.87-1.28a330.7,330.7,0,0,0-68.79-14.47c-2.81-.29-5.61-.54-8.42-.75-1.41-.11-2.82-.21-4.23-.28s-3.13-.21-4.68-.27c-1.36-.07-2.73-.13-4.09-.18q-6.28-.24-12.59-.24c-1.55,0-3.12,0-4.69,0-1.25,0-2.51,0-3.74.07a.81.81,0,0,0-.22,0l-4.21.13c-3.29.11-6.59.29-9.84.51-5.26.35-10.53.52-15.78.52A237.84,237.84,0,0,1,1272,355.28c.22-3.25.39-6.55.51-9.85,0-1.39.09-2.79.12-4.2a.41.41,0,0,0,0-.22c0-1.24.07-2.49.08-3.74,0-1.57,0-3.14,0-4.69q0-6.31-.23-12.59c0-1.37-.12-2.73-.18-4.09-.06-1.56-.16-3.13-.27-4.68s-.17-2.82-.28-4.23q-.32-4.22-.75-8.42a330.7,330.7,0,0,0-14.47-68.79c-.43-1.29-.86-2.59-1.29-3.87s-.87-2.57-1.33-3.86-.9-2.55-1.38-3.83-.93-2.54-1.43-3.81c-.93-2.52-1.93-5-3-7.54-.79-1.94-1.6-3.84-2.43-5.74s-1.55-3.6-2.36-5.38q-3.33-7.4-7-14.58l-1.86-3.57a332.49,332.49,0,0,0-35.18-53.48c-1.61-2-3.23-4-4.9-5.94q-3.87-4.62-7.94-9.07c-.63-.7-1.27-1.4-1.92-2.09q-4.48-4.87-9.22-9.61-7.17-7.16-14.69-13.83a333.66,333.66,0,0,0-80-52.52q-5.49-2.56-11.08-4.93c-3.74-1.59-7.52-3.09-11.29-4.52-1.27-.49-2.54-1-3.82-1.43q-3.82-1.42-7.67-2.71c-2.59-.87-5.17-1.71-7.77-2.52-1.32-.41-2.62-.82-3.92-1.19-2.61-.78-5.25-1.52-7.89-2.23s-5.3-1.41-8-2.07a333.39,333.39,0,0,0-45.1-7.75c-2.81-.28-5.62-.54-8.42-.74-1.41-.11-2.82-.21-4.24-.29-1.63-.11-3.25-.2-4.88-.28-1.3-.07-2.58-.11-3.88-.16C948.56.08,944.38,0,940.16,0s-8.4.08-12.59.24c-1.3,0-2.58.09-3.88.16-1.64.08-3.25.17-4.89.28-1.41.08-2.82.18-4.23.29-2.81.2-5.61.46-8.42.74a333.39,333.39,0,0,0-45.1,7.75c-2.68.66-5.33,1.34-8,2.07s-5.28,1.45-7.89,2.23c-1.3.37-2.6.78-3.92,1.19-2.6.81-5.18,1.65-7.77,2.52s-5.12,1.76-7.67,2.71c-1.29.46-2.56.94-3.82,1.43q-5.67,2.14-11.29,4.52t-11.08,4.93a333.91,333.91,0,0,0-80,52.52Q712.16,90.24,705,97.41q-4.72,4.73-9.23,9.61c-.65.69-1.28,1.39-1.91,2.09q-4.07,4.44-8,9.07c-1.66,2-3.28,3.95-4.9,5.94a333.16,333.16,0,0,0-35.18,53.48L644,181.17q-3.71,7.17-7,14.58c-.81,1.78-1.61,3.57-2.37,5.38s-1.63,3.8-2.42,5.74c-1,2.5-2,5-3,7.54-.49,1.27-1,2.54-1.42,3.81s-.92,2.55-1.38,3.83-.91,2.57-1.34,3.86-.85,2.58-1.28,3.87a330.7,330.7,0,0,0-14.47,68.79q-.43,4.2-.75,8.42c-.11,1.41-.21,2.82-.28,4.23s-.21,3.12-.27,4.68c-.07,1.36-.13,2.72-.18,4.09q-.24,6.27-.24,12.59c0,1.55,0,3.12,0,4.69,0,1.25,0,2.5.07,3.74a.81.81,0,0,0,0,.22c0,1.41.08,2.81.13,4.2.11,3.3.29,6.6.51,9.85A237.84,237.84,0,0,1,371.05,608.85c-5.24,0-10.51-.17-15.77-.52-3.25-.22-6.55-.4-9.85-.51l-4.2-.13a.81.81,0,0,0-.22,0c-1.24,0-2.49-.06-3.74-.07-1.57,0-3.14,0-4.69,0q-6.31,0-12.59.24c-1.37,0-2.73.11-4.09.18-1.56.06-3.13.15-4.68.27s-2.82.17-4.23.28q-4.22.32-8.42.75a330.7,330.7,0,0,0-68.79,14.47l-3.87,1.28c-1.29.43-2.57.88-3.85,1.34s-2.56.9-3.84,1.38-2.54.93-3.81,1.42c-2.52.94-5,1.94-7.54,3-1.94.79-3.84,1.6-5.74,2.42s-3.6,1.56-5.38,2.37q-7.4,3.33-14.58,7l-3.57,1.85A333.16,333.16,0,0,0,124.12,681c-2,1.62-4,3.24-5.94,4.9q-4.62,3.89-9.07,8c-.7.63-1.4,1.26-2.09,1.91q-4.87,4.5-9.61,9.23-7.16,7.15-13.83,14.68a333.91,333.91,0,0,0-52.52,80q-2.56,5.49-4.93,11.08T21.61,822c-.49,1.26-1,2.53-1.43,3.82-.95,2.55-1.85,5.1-2.71,7.67s-1.71,5.17-2.52,7.77c-.41,1.32-.82,2.62-1.19,3.92q-1.17,3.92-2.23,7.89c-.73,2.65-1.42,5.3-2.07,8a333.39,333.39,0,0,0-7.75,45.1c-.28,2.81-.54,5.61-.74,8.42C.86,916,.76,917.39.68,918.8c-.11,1.64-.2,3.25-.28,4.89-.07,1.3-.11,2.58-.16,3.88C.08,931.76,0,935.94,0,940.16s.08,8.4.24,12.59c0,1.3.09,2.58.16,3.88.08,1.63.17,3.25.28,4.88.08,1.42.18,2.83.29,4.24.2,2.8.46,5.61.74,8.42a333.39,333.39,0,0,0,7.75,45.1c.65,2.68,1.34,5.33,2.07,8s1.45,5.28,2.23,7.89c.37,1.3.78,2.6,1.19,3.92.81,2.6,1.65,5.18,2.52,7.77s1.76,5.12,2.71,7.67c.46,1.28.94,2.55,1.43,3.82,1.43,3.77,2.93,7.55,4.52,11.29s3.22,7.42,4.93,11.08a333.66,333.66,0,0,0,52.52,80q6.66,7.52,13.83,14.68,4.73,4.74,9.61,9.23c.69.65,1.39,1.29,2.09,1.92q4.44,4.07,9.07,7.94c2,1.67,3.95,3.29,5.94,4.9a332.49,332.49,0,0,0,53.48,35.18l3.57,1.86q7.17,3.7,14.58,7,2.67,1.22,5.38,2.36c1.9.83,3.8,1.64,5.74,2.43,2.5,1,5,2,7.54,3,1.27.5,2.54,1,3.81,1.43s2.55.92,3.84,1.38,2.56.9,3.85,1.33l3.87,1.29q13.59,4.4,27.68,7.67,10.05,2.31,20.34,4t20.69,2.76c2.82.3,5.66.55,8.5.76,1.41.11,2.82.2,4.23.28s3.06.19,4.6.27c1.38.06,2.77.13,4.17.18q6.27.23,12.59.23l4.69,0c1.25,0,2.5,0,3.74-.08a.41.41,0,0,0,.22,0c1.41,0,2.81-.08,4.2-.12,3.32-.12,6.6-.29,9.86-.51q7.9-.52,15.76-.52A237.82,237.82,0,0,1,608.33,1525c-.22,3.26-.4,6.55-.51,9.84-.05,1.4-.09,2.79-.13,4.19a1.31,1.31,0,0,0,0,.28c0,1.23-.06,2.45-.07,3.68,0,1.57,0,3.14,0,4.71q0,6.3.24,12.59c0,1.36.11,2.73.18,4.09.06,1.55.15,3.12.27,4.68s.17,2.82.28,4.23c.21,2.81.46,5.61.75,8.42a330.7,330.7,0,0,0,14.47,68.79c.43,1.29.86,2.59,1.28,3.87s.88,2.57,1.34,3.85.9,2.55,1.38,3.84.93,2.54,1.42,3.8c.94,2.52,1.94,5,3,7.55q1.19,2.9,2.42,5.74c.76,1.81,1.56,3.6,2.37,5.37q3.31,7.39,7,14.59l1.85,3.57A332.63,332.63,0,0,0,681,1756.19c1.62,2,3.24,4,4.9,6q3.89,4.6,8,9.07c.63.7,1.26,1.39,1.91,2.09q4.5,4.88,9.23,9.61,7.15,7.15,14.68,13.82a333.51,333.51,0,0,0,65.51,45.35l3.57,1.85c1.22.64,2.46,1.25,3.69,1.87,2.07,1,4.13,2,6.2,3,1.56.75,3.13,1.46,4.7,2.17,2.44,1.1,4.9,2.18,7.37,3.22s5,2.08,7.5,3.08c3,1.19,6,2.33,9.11,3.42.92.35,1.86.69,2.79,1,1.3.46,2.6.92,3.92,1.35,3.69,1.25,7.42,2.44,11.15,3.54,2.61.77,5.24,1.52,7.89,2.23s5.3,1.41,8,2.06a331.83,331.83,0,0,0,45.1,7.75c2.81.29,5.61.54,8.42.75,1.41.11,2.82.21,4.23.29,1.64.11,3.25.2,4.89.28l3.88.16c4.19.16,8.37.24,12.59.24s8.4-.08,12.59-.24l3.88-.16c1.63-.08,3.25-.17,4.88-.28,1.42-.08,2.83-.18,4.24-.29q4.2-.31,8.42-.75a331.83,331.83,0,0,0,45.1-7.75c2.68-.65,5.33-1.33,8-2.06s5.28-1.46,7.89-2.23c1.3-.37,2.6-.78,3.92-1.19,2.6-.81,5.18-1.65,7.77-2.52s5.12-1.76,7.67-2.72c1.28-.46,2.55-.93,3.82-1.42,3.77-1.43,7.55-2.94,11.29-4.52s7.42-3.22,11.08-4.93a333.39,333.39,0,0,0,80-52.53q7.52-6.66,14.69-13.82,4.73-4.74,9.22-9.61c.65-.7,1.29-1.39,1.92-2.09q4.07-4.45,7.94-9.07c1.67-2,3.29-4,4.9-6a332,332,0,0,0,35.18-53.47l1.86-3.57q3.7-7.19,7-14.59,1.22-2.65,2.36-5.37t2.43-5.74c1-2.5,2-5,3-7.55.5-1.26,1-2.53,1.43-3.8s.92-2.55,1.38-3.84.9-2.57,1.33-3.85.86-2.58,1.29-3.87a330.7,330.7,0,0,0,14.47-68.79c.29-2.81.54-5.61.75-8.42.11-1.41.2-2.82.28-4.23s.21-3.13.27-4.68c.06-1.36.13-2.73.18-4.09q.23-6.28.23-12.59,0-2.35,0-4.71c0-1.23,0-2.45-.08-3.68a.66.66,0,0,0,0-.28c0-1.4-.08-2.79-.12-4.19-.12-3.29-.29-6.58-.51-9.84a237.81,237.81,0,0,1,237.27-253.57q7.88,0,15.76.52c3.27.22,6.55.39,9.86.51,1.4,0,2.79.09,4.21.12a.41.41,0,0,0,.22,0c1.23,0,2.49.07,3.74.08l4.69,0q6.3,0,12.59-.23c1.4,0,2.79-.12,4.17-.18,1.54-.08,3.08-.16,4.6-.27s2.82-.17,4.23-.28c2.84-.21,5.68-.46,8.5-.76q10.44-1.08,20.69-2.76t20.34-4q14.09-3.26,27.68-7.67l3.87-1.29c1.28-.43,2.57-.87,3.85-1.33s2.55-.9,3.84-1.38,2.54-.93,3.8-1.43c2.52-.93,5-1.93,7.55-3q2.9-1.19,5.74-2.43t5.37-2.36q7.39-3.33,14.59-7l3.57-1.86a332,332,0,0,0,53.47-35.18c2-1.61,4-3.23,6-4.9q4.6-3.87,9.07-7.94c.7-.63,1.39-1.27,2.09-1.92q4.88-4.48,9.61-9.23,7.15-7.15,13.82-14.68a333.39,333.39,0,0,0,52.53-80c1.71-3.66,3.34-7.36,4.93-11.08s3.09-7.52,4.52-11.29c.49-1.27,1-2.54,1.42-3.82,1-2.55,1.86-5.11,2.72-7.67s1.71-5.17,2.52-7.77c.41-1.32.82-2.62,1.19-3.92.77-2.61,1.52-5.25,2.23-7.89s1.41-5.3,2.06-8a331.83,331.83,0,0,0,7.75-45.1q.44-4.21.75-8.42c.11-1.41.21-2.82.29-4.24.11-1.63.2-3.25.28-4.88.06-1.3.11-2.58.16-3.88.16-4.19.24-8.37.24-12.59S1880.24,931.76,1880.08,927.57Zm-664.9,17.3c0,.84,0,1.68,0,2.5,0,1.11,0,2.22.1,3.32,0,.39,0,.79,0,1.17,0,1.79.12,3.58.22,5.36a5.51,5.51,0,0,0,.05.81c.06,1.61.16,3.23.27,4.83a237.8,237.8,0,0,1-237.28,253.56q-7.87,0-15.77-.52c-1.59-.12-3.19-.21-4.79-.27a6,6,0,0,0-.84-.05c-1.78-.1-3.57-.18-5.36-.22-.38,0-.78,0-1.17,0-1.1,0-2.21-.08-3.32-.1l-2.5,0-4.71,0-4.71,0-2.51,0c-1.11,0-2.21,0-3.31.1q-.6,0-1.17,0c-1.79,0-3.59.12-5.36.22a5.83,5.83,0,0,0-.84.05c-1.6.06-3.2.15-4.79.27q-7.92.51-15.77.52A237.8,237.8,0,0,1,664.42,962.86c.11-1.6.21-3.22.27-4.83a7.34,7.34,0,0,0,0-.81c.09-1.78.17-3.57.22-5.36,0-.38,0-.78,0-1.17,0-1.1.08-2.21.1-3.32,0-.82,0-1.66,0-2.5,0-1.57,0-3.14,0-4.71s0-3.14,0-4.71c0-.84,0-1.68,0-2.51,0-1.11-.05-2.21-.1-3.31q0-.6,0-1.17c-.05-1.79-.13-3.59-.22-5.36a7.34,7.34,0,0,0,0-.81c-.06-1.62-.16-3.23-.27-4.83A237.8,237.8,0,0,1,901.7,663.9q7.84,0,15.76.52c1.6.11,3.21.21,4.83.27a7.34,7.34,0,0,0,.81,0c1.77.09,3.57.17,5.36.22q.57,0,1.17,0c1.1,0,2.2.08,3.31.1l2.51,0c1.57,0,3.14,0,4.71,0s3.14,0,4.71,0l2.5,0c1.11,0,2.22-.05,3.32-.1.39,0,.79,0,1.17,0,1.79-.05,3.58-.13,5.36-.22a7.34,7.34,0,0,0,.81,0c1.61-.06,3.23-.16,4.83-.27q7.9-.52,15.76-.52A237.8,237.8,0,0,1,1215.9,917.46c-.11,1.6-.21,3.21-.27,4.83a5.51,5.51,0,0,0-.05.81c-.1,1.77-.18,3.57-.22,5.36q0,.57,0,1.17c0,1.1-.08,2.2-.1,3.31,0,.83,0,1.67,0,2.51,0,1.57,0,3.14,0,4.71S1215.17,943.3,1215.18,944.87ZM794.68,187.1a205.75,205.75,0,1,1-60.26,145.48A204.41,204.41,0,0,1,794.68,187.1Zm-462.1,958.8a205.74,205.74,0,1,1,145.49-60.26A204.34,204.34,0,0,1,332.58,1145.9Zm753.06,547.32a205.75,205.75,0,1,1,60.26-145.48A204.4,204.4,0,0,1,1085.64,1693.22Zm607.58-607.58a205.74,205.74,0,1,1,60.26-145.48A204.36,204.36,0,0,1,1693.22,1085.64Z"/><path class="cls-2" d="M8820.4,1500.86h-1.47c-157.92,0-286.49-125.52-291.43-282.23l-.08-16.15L8526,905.85l-252.41,423.5a125,125,0,0,1-213.9,1.33L7809.53,922.55v286.73c0,161-130.55,291.59-291.59,291.59v-978a143.44,143.44,0,0,1,143.44-143.43h117.7l393.38,647.93,385.21-647.93H8677a143.45,143.45,0,0,1,142,123.25l.06,40,.53,375.05ZM6988.16,693.43V993q0,142.59-55.26,205.06t-154.61,62.48q-99.34,0-155.4-62.48T6566.82,993V691.41c-1.08-172.49-141.25-312-314-312-1.08,0-2.16,0-3.22,0v623.17c0,1.59,0,3.17,0,4.74q1.3,244.86,138.55,379.76,138.59,136.15,386.89,136.17,246.72,0,386.9-136.17,138.84-134.88,140.16-379.73c0-1.59,0-3.18,0-4.77V379.44C7128.75,379.44,6988.16,520,6988.16,693.43ZM6091.54,940.16q0,171.44-79.31,297.18T5792,1432q-141,68.88-325.23,68.88H4936.47V379.44h530.27q184.24,0,325.23,68.9t220.26,193.85Q6091.54,767.17,6091.54,940.16Zm-320.42,0q0-97.7-40-165.81T5619.74,669.41q-71.3-36.82-169-36.84h-197v615.17h197q97.69,0,169-36.84t111.34-106.53Q5771.12,1034.7,5771.12,940.16Zm-1002.35-1.59q0,128.14-46.47,234.7t-130.54,185q-84.12,78.48-197.86,121.75t-248.32,43.25q-133,0-247.5-43.25T3700.22,1357.5q-83.32-79.32-130.57-185.84t-47.26-233.09q0-125,47.26-230.7a579.06,579.06,0,0,1,130.57-185q83.31-79.32,197.05-122.56T4145.58,357q134.58,0,248.32,43.27T4591,522q83.31,78.53,130.57,184.25T4768.77,938.57Zm-320.39,1.59q0-73.68-23.23-132.16t-64.09-100.91a276.15,276.15,0,0,0-96.12-64.9q-55.27-22.41-119.36-22.43t-119.35,22.43a284.26,284.26,0,0,0-96.93,64.9q-41.65,42.45-64.06,100.91t-22.43,132.16q0,73.71,22.43,132.18t64.06,100.93a283.75,283.75,0,0,0,96.93,64.87q55.26,22.45,119.35,22.43t119.36-22.43a275.66,275.66,0,0,0,96.12-64.87q40.83-42.45,64.09-100.93T4448.38,940.16ZM3354.68,379.44c-170.11,0-308.13,137.36-309.19,307.21v290L3033.31,962,2653.9,502.71l-14.74-17.85a309.57,309.57,0,0,0-348.25-80.69v1096.7c170.77,0,309.21-138.43,309.21-309.2V903.24l14.4,17.38,380.8,459.76,13.6,16.43.09.1a309.56,309.56,0,0,0,347.26,81.47V379.45Z"/></g></g></svg>